<?xml version="1.0" encoding="UTF-8" standalone="no"?>
<svg
   xmlns="http://www.w3.org/2000/svg"
   id="generated_logo_1"
   viewBox="0 0 394.51215 127.10867"
   version="1.1"
   width="394.51215"
   height="127.10867">
  <g
     id="logo-elements"
     transform="translate(63.554337,63.554337)"
     transform-box="stroke-box">
    <g
       id="iconcontainer"
       transform-origin="center"
       transform-box="fill-box">
      <g
         class="iconBGGrpM"
         transform="rotate(71)"
         id="g15">
        <g
           class="iconBGGrp"
           transform="matrix(0.1,0,0,0.1,-50,-50)"
           id="g13">
          <g
             class="lg_icon_bg_"
             id="lg_icon_bg_5"
             stroke="none"
             stroke-width="1"
             fill="none"
             fill-rule="evenodd">
            <g
               id="0005">
              <path
                 id="FRAME"
                 style="fill:none"
                 d="M 0,0 V 1000 H 1000 V 0 Z" />
              <g
                 id="IconBG"
                 fill="#b6d7a8">
                <path
                   d="M 640,1000 H 360 C 162,1000 0,838 0,640 V 360 C 0,162 162,0 360,0 h 280 c 198,0 360,162 360,360 v 280 c 0,198 -162,360 -360,360"
                   id="Fill-1" />
              </g>
            </g>
          </g>
        </g>
      </g>
      <g
         class="iconGrpM"
         id="g26">
        <g
           class="iconGrp"
           transform="matrix(0.1,0,0,0.1,-50,-50)"
           id="g24">
          <g
             class="lg_icon"
             id="lg_icon_94"
             stroke="none"
             stroke-width="1"
             fill="none"
             fill-rule="evenodd">
            <g
               id="0094">
              <path
                 id="polygon17"
                 style="fill:none"
                 d="M 0,0 V 1000 H 1000 V 0 Z" />
              <g
                 id="Icon"
                 transform="translate(144,248)"
                 fill="#073763">
                <path
                   d="M 4,353.552 H 150.001 L 0,503.552 h 707.107 l -150,-150 H 711.108 L 357.554,0 Z m 353.554,-268.7 208.7,208.7 H 497.107 L 353.554,149.999 210.001,293.552 h -61.148 z m -4,150 58.7,58.7 H 294.853 Z m -118.7,118.7 h 237.401 l 90,90 H 144.854 Z"
                   id="path19" />
              </g>
            </g>
          </g>
        </g>
      </g>
    </g>
    <g
       id="textlines">
      <g
         id="einsg"
         transform="translate(-10,12)">
        <g
           aria-label="Ferienschule"
           id="eins"
           style="text-rendering:geometricPrecision">
          <path
             d="m 78.178711,-26.977539 h 1.572266 q 12.919921,0 12.919921,0.273437 0.341797,1.811524 0.341797,2.768555 -0.170898,0.615235 -0.478515,2.324219 -0.170899,0.478516 -0.375977,0.478516 -2.22168,0 -2.22168,-0.615235 v -0.06836 l 0.478516,-1.743164 q -0.170898,-1.298828 -0.512695,-1.298828 l -0.444336,-0.06836 h -0.922852 l -7.143554,0.341797 q -0.341797,0 -0.341797,0.683594 v 0.170898 l 0.136718,5.810547 q 0,0.205078 1.469727,0.205078 l 2.1875,0.102539 q 0,-1.05957 0.991211,-1.05957 h 0.786133 l 0.136718,0.170898 v 0.512696 q 0,0.307617 0.239258,0.991211 -0.546875,2.802734 -0.957031,2.802734 l -1.469727,-0.581055 -0.170898,-0.03418 v -0.102539 l 0.273438,-0.375977 v -0.170898 l -3.28125,-0.205079 q -0.341797,0.136719 -0.341797,0.375977 v 1.162109 l -0.06836,0.683594 q 0,1.298828 0.478516,6.1523439 0.205078,0.1367188 2.324219,0.3076172 l 0.06836,0.03418 q 0.205078,0.03418 0.205078,0.1708985 -0.170898,1.640625 -0.888672,1.640625 h -0.03418 v 0.068359 l -0.751954,-0.068359 h -0.683593 q -2.1875,0.2392578 -5.742188,0.3417968 l -0.03418,0.068359 h -0.03418 l -0.307617,-0.1025391 0.03418,-0.4785156 -0.06836,-0.3417969 q 0.102539,-0.1367187 0.170898,-0.7861328 0,-0.2050781 2.666016,-0.4785156 0.649414,-0.1025391 0.649414,-0.6835937 l 0.307617,-5.1611327 0.239258,0.102539 h 0.102539 l 0.06836,-0.205078 V -13.75 l -0.478516,-0.375977 -0.136719,-1.264648 0.136719,-0.512695 q -0.136719,-0.581055 -0.136719,-4.716797 v -1.811524 q 0,-1.02539 0.102539,-1.845703 0,-0.341797 -0.512695,-0.410156 H 78.24707 q -2.460937,0 -2.460937,-1.230469 l -0.06836,-0.444336 q 0.06836,-0.478515 0.239258,-0.478515 h 0.102539 q 0.06836,0 0.170899,0.410156 h 0.06836 l 0.06836,-0.102539 v -0.06836 h -0.06836 q 0,-0.375977 1.879883,-0.375977 z m 6.733398,0.717773 v 0.06836 h 0.102539 q 0.239258,0 0.273438,-0.136719 v -0.06836 h -0.102539 q -0.273438,0.06836 -0.273438,0.136718 z m -8.032226,0.06836 q 0.136719,0.341797 0.786133,0.341797 h 0.170898 v 0.06836 q -0.341797,0.136719 -0.341797,0.375977 v 0.136718 h 0.03418 q 1.503906,-0.102539 1.503906,-0.273437 v -0.03418 l -0.341797,-0.205078 v -0.102539 q 0,-0.102539 0.444336,-0.205078 v -0.102539 q -0.683594,-0.170899 -1.401367,-0.170899 -0.854492,0.03418 -0.854492,0.170898 z m 15.483398,0.751953 -0.102539,-0.136719 q -0.307617,0.717774 -0.307617,0.957031 v 0.102539 q 0,0.307618 0.239258,0.444336 h 0.06836 l 0.06836,-0.102539 v -0.341797 l -0.03418,-0.06836 q 0.06836,-0.205078 0.06836,-0.478516 z m -10.390625,0.307617 h -0.102539 v 0.06836 h 0.102539 z m 10.151367,2.324219 h -0.06836 v 0.03418 q 0.06836,0.170898 0.136719,0.205078 h 0.102539 v -0.06836 q -0.03418,-0.06836 -0.136719,-0.136718 z m -12.270507,0.922851 h -0.102539 v 0.136719 h 0.102539 z m 6.357421,3.657227 h -0.170898 v 0.06836 l 0.136719,0.102539 h 0.102539 V -18.125 Z m -4.990234,1.845703 -0.102539,0.136719 0.102539,0.03418 h 0.717774 q 0,-0.136719 -0.649415,-0.170899 z m -1.811523,6.220703 -0.06836,0.102539 0.06836,0.4101565 h 0.06836 l 0.102539,-0.1025391 V -9.9902344 Z M 79.990234,-9.375 79.887695,-9.443359 q -0.136718,0.2392578 -0.136718,0.546875 l 0.03418,0.1025391 h 0.06836 q 0.136718,-0.03418 0.136718,-0.3417969 z m -0.512695,0 h -0.06836 v 0.1367187 h 0.06836 z"
             style="font-weight:300;font-size:35px;font-family:'Love Ya Like A Sister';letter-spacing:2.5;fill:#035578"
             id="path48" />
          <path
             d="m 101.63086,-22.158203 q 1.43555,0 3.48633,1.230469 1.74316,1.298828 1.74316,1.777343 1.36719,2.871094 1.36719,3.452149 l 0.0342,0.273437 q -0.5127,1.196289 -0.5127,1.640625 l -0.20507,0.03418 h -2.90528 q -0.41015,0 -0.99121,0.102539 -4.921874,-0.410156 -6.904296,-0.410156 h -0.717773 q -0.410157,0.615234 -0.410157,0.888672 0.239258,0.375976 0.239258,1.196289 0,1.298828 0.410156,1.538086 l 0.03418,0.170898 v 0.03418 l -0.205078,-0.102539 v 0.102539 l 0.307617,0.3417967 q 0,0.4443359 0.615235,1.1279297 1.127929,1.9824219 2.460937,2.4609375 1.127931,0.3759765 2.563481,0.3759765 0.23925,0 0.99121,-0.4443359 0.61523,-0.1367187 2.59765,-2.2216797 v -0.1025391 q 0,-0.068359 -0.47851,-0.1367187 l -0.0684,-0.1708984 q 0.78613,-1.5039066 1.87988,-1.9824216 0.30762,0.307617 1.26465,0.957031 0.75195,1.1621093 2.0166,2.7343749 v 0.1367188 q -1.09375,1.4355469 -1.57226,1.4355469 h -0.13672 q 0,-0.7519532 -0.92286,-0.8544922 -0.17089,0 -1.5039,1.1279297 -0.78613,0.6152343 -2.7002,1.1621093 -2.22168,0.444336 -3.14453,0.444336 l -1.94824,-0.6835938 q -1.640625,0 -3.007813,-1.7773437 -0.581055,-0.6152344 -0.957031,-1.4697266 0,-0.2734375 -0.751953,-2.8369143 -0.239258,-0.991211 -0.239258,-1.914062 v -0.03418 q 0,-4.545898 2.734375,-7.963867 0.341797,-0.854492 1.572266,-1.264649 0.820312,-0.239257 1.982421,-0.375976 0.307618,-0.136719 1.982423,0 z m -3.144532,0.717773 v 0.03418 h 0.06836 q 0.546875,0 2.050782,-0.375977 0.30762,-0.03418 0.30762,-0.170898 l -0.10254,-0.102539 h -0.0342 q -0.991213,0 -2.221682,0.546875 z m -1.367187,0.581055 v 0.03418 l 0.102539,0.06836 h 0.03418 q 0.683594,-0.170898 0.683594,-0.341797 v -0.205078 l -0.136719,-0.136719 h -0.06836 q -0.615234,0.205078 -0.615234,0.581054 z m 5.263669,-0.341797 h -1.02539 v 0.06836 q 0,0.136718 1.40137,0.205078 h 0.0342 v -0.136719 q 0,-0.06836 -0.41016,-0.136719 z m -2.426755,0.512695 v 0.03418 q 0,0.136719 1.401365,0.341797 l 0.0684,-0.03418 v -0.136718 q -0.27344,-0.375977 -0.92285,-0.375977 h -0.10254 q -0.444335,0.03418 -0.444335,0.170898 z m 2.084965,0.205079 v 0.03418 q 1.94824,1.12793 2.08496,1.12793 h 0.0342 l 0.34179,-0.136719 0.20508,0.06836 0.0342,-0.06836 v -0.03418 q -0.13672,-0.10254 -0.58105,-0.205079 l -0.6836,-0.307617 q -0.27343,-0.581054 -1.09375,-0.581054 h -0.10254 q -0.23925,0.03418 -0.23925,0.102539 z m -4.067387,0.991211 q 0.341797,-0.273438 1.367187,-0.581055 v -0.06836 l -0.03418,-0.06836 h -0.341797 q -0.991211,0.273438 -0.991211,0.717774 z m -1.811524,2.255859 v 0.102539 q 0,0.375977 6.220701,0.854492 l 0.3418,0.102539 0.44434,-0.03418 q 1.36718,0.444335 1.8457,0.444335 0,0.102539 0.20508,0.170899 0.20507,-0.307617 0.20507,-0.581055 v -0.649414 q 0,-0.444336 -1.70898,-1.982422 -0.78613,-0.786133 -1.77734,-0.888672 l -1.16211,-0.205078 q -2.836917,0.581055 -3.725589,1.401367 -0.375976,0.717774 -0.888672,1.26465 z m 0.375977,-2.050781 v 0.06836 h 0.06836 q 0.444336,-0.102539 0.444336,-0.239258 v -0.03418 h -0.170898 q -0.170899,0 -0.341797,0.205078 z m 8.168944,0.478515 q 0.0684,0.273438 0.30762,0.273438 h 0.0684 l 0.0684,-0.102539 v -0.205078 l -0.13672,-0.170899 q -0.30762,0 -0.30762,0.205078 z m -8.818358,0.170899 -0.06836,0.102539 v 0.03418 h 0.06836 l 0.136719,-0.102539 v -0.03418 z m 9.672848,0.273437 h -0.13672 q 0.37598,1.12793 0.54688,1.230469 h 0.13672 l 0.10254,-0.06836 q -0.27344,-1.09375 -0.58106,-1.09375 z m -9.365231,0.615235 q 0.205078,-0.03418 0.205078,-0.273438 v -0.03418 q -0.205078,0.06836 -0.205078,0.307618 z m 10.527341,0.922851 -0.10254,0.06836 v 0.239257 l 0.10254,0.136719 q 0.13672,-0.03418 0.13672,-0.239258 v -0.136718 l -0.0342,-0.06836 z m -10.903318,0.478516 v 0.136719 l 0.06836,0.06836 h 0.06836 q 0.239258,-0.102539 0.410156,-0.375977 v -0.102539 H 96.19629 q -0.205078,0 -0.375977,0.273438 z m -1.401367,-0.205078 q -0.273437,0.273437 -0.478515,1.367187 h 0.06836 q 0.205078,0 0.615234,-1.196289 -0.06836,-0.170898 -0.205079,-0.170898 z m 3.486328,0.410156 v 0.102539 q 0.649414,0.444336 2.358397,0.444336 h 0.30762 l 0.44434,-0.03418 v -0.136719 q -1.401372,-0.307617 -3.110357,-0.375976 z m 6.254887,0.888672 h -0.10254 v 0.102539 h 0.10254 z m -6.596683,0.273437 v 0.06836 q 0.683593,0.170898 3.623043,0.341796 v 0.03418 0.03418 l -0.71777,0.102539 q 0,0.102539 0.88867,0.102539 1.43555,0 1.43555,-0.136719 0,-0.341797 -5.229493,-0.546875 z m -3.452149,0.239258 H 93.94043 v 0.205078 q 0,0.205078 0.102539,0.205078 0.170898,0 0.205078,-0.341797 z m 2.768555,0.06836 -0.170899,0.03418 v 0.205078 h 0.170899 v -0.136719 -0.06836 z m -1.09375,0.273438 v 0.03418 h 0.03418 l 0.581055,-0.06836 v -0.06836 l -0.102539,-0.136719 H 96.19629 q -0.307617,0 -0.410156,0.239258 z m 8.305667,0.06836 q 0,0.136719 0.61523,0.136719 l 0.30762,-0.03418 v -0.06836 q 0,-0.136719 -0.64942,-0.136719 -0.27343,0.06836 -0.27343,0.10254 z m -10.15137,0.888672 v 0.102539 0.03418 q -0.03418,0.102539 -0.03418,0.478516 v 0.136718 q 0,0.615235 0.341797,1.09375 h 0.03418 q 0,-1.640625 -0.341797,-1.845703 z m 0.615234,2.973633 h -0.102539 v 0.06836 l 0.102539,0.06836 h 0.06836 v -0.06836 z m 0.239258,0.5810547 -0.03418,0.03418 v 0.068359 q 0.136719,0.546875 0.410156,0.546875 v -0.03418 -0.068359 q 0,-0.2734375 -0.375976,-0.546875 z m 11.142578,0.3076172 0.0684,0.102539 h 0.1709 q 0.20508,0 0.23926,-0.1367187 l -0.13672,-0.1367188 h -0.0342 q -0.23926,0 -0.30762,0.1708985 z m -0.78613,1.9824219 0.0684,0.03418 h 0.0342 q 0.37597,0 0.47851,-0.4443359 v -0.068359 q -0.37597,0 -0.58105,0.4785157 z m 2.39258,-0.068359 0.0342,0.03418 h 0.10253 q 0.20508,-0.1367188 0.20508,-0.3759766 h -0.10254 q -0.23925,0.1367188 -0.23925,0.3417969 z m 1.19628,-0.3417969 h -0.0342 v 0.068359 q 0.10254,0.4101562 0.30762,0.4101562 h 0.0342 l 0.0684,-0.068359 v -0.03418 q -0.0684,-0.3759766 -0.37598,-0.3759766 z m -1.98242,0.7177734 0.10254,0.068359 q 0.5127,-0.1708984 0.5127,-0.4443359 v -0.068359 h -0.0342 q -0.47852,0 -0.58106,0.4443359 z m -2.66601,0.7519532 h 0.0684 q 0.27343,-0.1025391 0.30761,-0.3417969 l -0.0342,-0.03418 q -0.34179,0.2050781 -0.34179,0.3759766 z m 2.0166,0.1708984 h 0.13672 q 0.34179,-0.3076172 0.34179,-0.4443359 h -0.0342 q -0.44433,0.1367187 -0.44433,0.4443359 z m -9.707033,0.3076172 h -0.102539 v 0.1367187 q 0.06836,0.1708985 0.581055,0.3759766 l 0.136719,0.1025391 q -0.375977,-0.5810547 -0.615235,-0.6152344 z m 2.392578,0.1367187 h -0.03418 v 0.03418 q 0,0.1367188 0.717773,0.3076172 l 0.03418,-0.03418 v -0.068359 q -0.444336,-0.2392579 -0.717774,-0.2392579 z m 2.016605,0.3759766 h -0.10254 v 0.1025391 h 0.10254 z m 3.55468,0.5126953 q 0.3418,0 0.54688,-0.5126953 h -0.10254 q -0.44434,0.2392578 -0.44434,0.5126953 z m -2.39257,0.3417969 -0.71778,-0.068359 h -0.13672 q -0.30761,0 -0.34179,0.1367188 v 0.068359 l 0.13672,0.1025391 h 0.61523 q 1.05957,0 2.49512,-0.3759766 -0.0684,-0.2050781 -0.41016,-0.2050781 h -0.1709 q -0.82031,0 -1.46972,0.3417968 z"
             style="font-weight:300;font-size:35px;font-family:'Love Ya Like A Sister';letter-spacing:2.5;fill:#035578"
             id="path50" />
          <path
             d="m 126.34766,-20.927734 q 1.333,0 2.25586,1.879882 0.17089,0 0.47851,0.444336 l 0.44434,2.529297 q -0.23926,0.410156 -1.81153,0.410156 h -0.34179 q -1.26465,-0.205078 -1.26465,-0.854492 0,-0.478515 -0.78613,-1.333007 -0.10254,-0.170899 -1.46973,-0.170899 -1.29883,0 -3.14453,0.683594 -1.29883,1.367187 -1.70899,2.11914 0.23926,5.844727 0.1709,7.3144536 0,0.3076172 0.41016,0.3076172 h 0.82031 q 0.54688,0.03418 0.54688,0.2050781 v 0.03418 l 0.13671,0.4443359 L 121.01563,-5 l -0.20508,0.2734375 -1.60645,0.1708984 h -0.13672 l -0.68359,0.2050782 q -3.93066,-0.1367188 -3.93066,-0.3076172 -0.6836,0 -0.6836,-0.6152344 -0.0684,-0.6152344 -0.0684,-1.2646484 0,-0.6494141 1.33301,-0.8544922 0,-0.2734375 0.92285,-0.2734375 l 0.10254,-0.03418 v -0.068359 l -0.20508,-9.3652344 q 0,-0.854492 -0.44433,-0.854492 h -0.20508 q -0.41016,0 -1.36719,0.375976 l -0.0684,-0.06836 v -0.06836 q 0,-0.06836 0.27344,-0.170899 v -0.06836 q -0.3418,0 -0.3418,-1.914063 -0.0684,0 -0.10254,-0.615234 1.36719,-1.05957 2.8711,-1.05957 h 0.85449 q 0.51269,0 1.74316,0.341796 v 0.10254 q -0.30761,0.478515 -0.30761,0.683593 v 0.239258 q 2.76855,-1.230469 7.58789,-0.717773 z m -8.95508,5.161132 v 0.170899 q 0.1709,0.341797 0.1709,0.717773 -0.0342,0.136719 -0.10254,1.401367 l 0.0684,1.367188 h 0.0342 q 0.10254,0 0.27343,-3.178711 0.0684,0 0.0684,-0.683594 -0.0342,-0.307617 -0.17089,-0.307617 h -0.0684 q -0.27344,0.170899 -0.27344,0.512695 z m -2.05078,10.3222661 -0.44434,0.03418 v 0.068359 q 0,0.1708985 0.99121,0.1708985 h 1.02539 l 0.23926,-0.03418 q 0,-0.1708985 -1.81152,-0.2392575 z m 5.91308,-14.0136721 v 0.06836 q 0.30762,0 0.82032,-0.991211 v -0.170899 h -0.0342 q -0.88868,0.273438 -0.78614,1.09375 z m 4.40918,1.09375 h 0.1709 q 0.1709,-0.03418 0.64942,-0.820312 v -0.03418 q 0,-0.06836 -0.13672,-0.06836 -0.58106,0.273437 -0.58106,0.717773 -0.0342,0 -0.10254,0.205079 z m -7.86133,0.786133 h -0.13671 l -0.1709,0.717773 q 0,0.170899 0.20508,0.341797 h 0.0342 q 0.10253,0 0.17089,-0.478515 z m 4.75098,-2.631836 0.1709,0.683594 h 0.27344 v -0.717774 l -0.10254,-0.102539 h -0.10254 q -0.23926,0.03418 -0.23926,0.136719 z m -7.45117,14.2187501 -0.0684,0.068359 0.0342,0.068359 h 1.87988 v -0.102539 l -1.16211,-0.03418 z M 114.4873,-20.244141 q 0.27344,0.273438 0.58106,0.273438 l 0.0342,-0.06836 v -0.239258 l -0.13672,-0.170899 q -0.47852,0.06836 -0.47852,0.205078 z m 3.45215,14.4921879 0.10254,0.102539 h 0.5127 l 0.13672,-0.1367187 q 0,-0.068359 -0.1709,-0.1367188 -0.58106,0.068359 -0.58106,0.1708985 z m 9.84375,-13.5693359 h -0.10254 v 0.06836 q 0.27344,0.273438 0.47852,0.273438 h 0.10254 v -0.06836 q -0.27344,-0.273437 -0.47852,-0.273438 z m -11.72363,-1.606445 h -0.10254 v 0.136718 l 0.20508,0.239258 h 0.30762 v -0.06836 z m -1.02539,2.016601 v 0.06836 h 0.10254 q 0.37598,0 0.41016,-0.136719 l -0.0684,-0.102539 h -0.0684 q -0.30762,0 -0.37598,0.170898 z m 8.75,-1.606445 -0.41016,0.03418 v 0.03418 l 0.0684,0.102539 h 0.3418 q 0.23926,0 0.27344,-0.136718 l -0.0684,-0.03418 z m -5.40039,11.0058592 -0.13672,0.1025391 v 0.2734375 h 0.13672 l 0.13672,-0.1025391 v -0.2050781 l -0.0684,-0.068359 z m -4.10156,3.725586 -0.13672,-0.1367188 -0.0684,0.1367188 v 0.1367187 l 0.0684,0.1025391 h 0.13672 z m 4.78515,-12.9199222 -0.13672,0.03418 v 0.102539 l 0.13672,0.102539 h 0.10254 l 0.10254,-0.102539 v -0.102539 z m 5.40039,-1.845703 v 0.06836 h 0.23926 l 0.13672,-0.102539 -0.10254,-0.10254 q -0.27344,0.06836 -0.27344,0.136719 z m 2.25586,0 -0.0684,0.06836 v 0.03418 l 0.0684,0.102539 h 0.13672 l 0.0684,-0.102539 v -0.03418 l -0.0684,-0.06836 z m -8.30566,-0.341797 -0.1709,0.06836 v 0.136718 h 0.1709 l 0.10254,-0.136718 z m -0.10254,0.615235 -0.13672,0.102539 v 0.06836 l 0.0684,0.06836 0.1709,-0.136719 v -0.102539 z m 8.30566,2.836914 v 0.06836 h 0.0684 l 0.13672,-0.102539 v -0.102539 h -0.0342 q -0.1709,0.102539 -0.1709,0.136719 z m -1.16211,-3.007813 -0.13671,0.102539 v 0.03418 h 0.17089 l 0.0684,-0.06836 v -0.06836 z m -7.07519,11.6894534 h -0.0684 v 0.1367187 h 0.0684 z"
             style="font-weight:300;font-size:35px;font-family:'Love Ya Like A Sister';letter-spacing:2.5;fill:#035578"
             id="path52" />
          <path
             d="m 137.83691,-29.130859 1.16211,-0.170899 q 1.19629,0 1.87989,1.230469 l 0.23925,1.09375 q -0.0684,0.649414 -0.75195,1.708984 -0.44434,0.444336 -1.36719,0.444336 -2.15332,0 -2.66601,-0.649414 -0.5127,-0.683594 -0.47852,-1.914062 -0.13672,0 -0.13672,-0.06836 v -0.06836 q 1.02539,-1.606445 2.11914,-1.606444 z m -0.68359,0.854492 v 0.03418 q 1.16211,-0.136719 1.16211,-0.307618 l -0.1709,-0.06836 q -0.99121,0.170898 -0.99121,0.341797 z m 0.58105,0.991211 h 0.0342 l 0.20508,0.03418 h 0.0684 q 0.37598,0 0.47852,-0.273437 l -0.0342,-0.06836 h -0.41016 q -0.27344,0 -0.3418,0.307617 z m 2.46094,-0.307617 -0.10254,0.170898 v 0.136719 h 0.0342 l 0.10254,-0.136719 v -0.170898 z m -0.82031,1.127929 v 0.102539 h 0.13672 q 0.23926,0 0.37598,-0.239257 v -0.10254 h -0.0684 q -0.23926,0 -0.44434,0.239258 z m -0.75195,0.615235 -0.10254,0.102539 v 0.06836 h 0.61523 l 0.10254,-0.06836 -0.10254,-0.102539 z m -4.34082,3.24707 h 0.10254 q 0.27343,0.239258 0.68359,0.239258 l 0.44434,-0.205078 q 4.64843,0 4.64843,0.273437 l 0.0342,0.239258 v 0.581055 q 0.30762,0.683593 0.30762,1.298828 v 0.546875 q -0.41016,5.571289 -0.54688,9.023437 -0.0684,0.205078 -0.13671,0.7177737 0.0342,0.1367187 0.30761,0.1367187 h 0.10254 q 1.84571,0 1.84571,0.444336 l -0.0342,0.068359 v 0.2050782 q 0.41015,0.8203125 0.41015,2.5976562 l 0.13672,1.3671875 -0.10254,0.06836 -1.5039,0.068359 h -3.41797 q -3.82813,0 -3.82813,-0.6152344 0,-0.3759766 -0.20508,-0.7519531 0.10254,-0.2392578 0.3418,-0.3759766 h 0.10254 q 0.13672,0.1367188 0.30762,0.1367188 h 0.0684 q 0.99121,0 2.35839,-0.1708985 v -0.068359 q -2.93945,-0.2050782 -2.93945,-0.4785157 l -0.0342,-0.2734375 v -0.3759765 l -0.0684,-0.8886719 q 0,-0.3417969 2.56348,-0.3417969 0.3418,0 0.3418,-1.538086 l 0.41015,-8.989258 h -0.0684 q -0.95703,0 -0.95703,-0.136719 0,-0.03418 0.10254,-0.102539 -2.05078,0 -2.05078,-0.478515 -0.13672,-0.03418 -0.13672,-0.273438 l 0.1709,-0.410156 q 0,-0.136719 -0.20508,-0.375977 0.27344,-0.273437 0.37598,-1.09375 z m 0.54687,0.683594 v 0.136718 H 135 q 0.88867,0 0.88867,-0.136718 l -0.0684,-0.136719 h -0.10254 q -0.88867,0 -0.88867,0.136719 z m 4.64844,-0.239258 -0.10254,0.102539 0.13672,0.102539 h 0.0684 v -0.102539 z m -3.89649,0.717773 h -0.61523 v 0.102539 q 0,0.136719 0.47852,0.136719 h 0.37597 0.10254 1.12793 q 0.5127,0 0.5127,-0.170898 v -0.03418 q 0,-0.170898 -1.98243,-0.03418 z m 3.042,0.03418 -0.30762,-0.03418 v 0.06836 q 0.23926,0 0.58105,0.341797 h 0.0684 q 0.0684,0 0.0684,-0.102539 h 0.0684 q 0.13672,0 0.1709,0.307617 h 0.0684 l 0.47852,-0.341797 v -0.205078 l -0.71778,-0.03418 z m -0.13672,1.914063 0.1709,0.512695 -0.23926,0.615234 q 0.13672,0.307617 0.23926,0.307617 h 0.0342 l 0.0684,-0.205078 v -0.205078 q 0,-1.230469 0.37597,-1.230469 l 0.10254,-0.136718 v -0.136719 l -0.10254,-0.102539 h -0.20508 q -0.44433,0 -0.44433,0.581055 z m -1.05957,3.24707 -0.10254,4.409179 q 0.0342,0.239258 0.10254,0.239258 0.10254,0 0.13672,-0.307617 l -0.0342,-0.512695 q 0.1709,-0.170899 0.37597,-1.367188 v -0.205078 l -0.0684,-0.478515 q 0.20508,-0.170899 0.20508,-0.239258 -0.13672,-0.375977 -0.13672,-0.751953 v -0.06836 q 0.13672,0 0.3418,-3.828125 -0.10254,-0.273437 -0.20508,-0.273437 -0.51269,0 -0.61523,3.383789 z m 1.6748,-3.007813 -0.13672,0.03418 v 0.205078 q 0,0.205078 0.1709,0.307617 h 0.10254 l 0.10254,-0.136718 v -0.170899 q -0.0684,-0.170898 -0.23926,-0.239258 z m -0.1709,5.571289 h -0.17089 q -0.27344,1.264649 -0.27344,1.879883 h 0.0342 q 0.1709,0 0.44433,-1.401367 v -0.239258 z m -0.64941,3.212891 v 0.239258 h 0.0684 q 0.1709,-0.06836 0.1709,-0.410156 v -0.239258 h -0.10254 q -0.0684,0 -0.13672,0.410156 z m 0.0684,0.5126953 -0.10254,0.1367188 v 0.1708984 h 0.10254 l 0.13672,-0.1025391 v -0.102539 l -0.10254,-0.1025391 z m 2.73437,0.8203125 -0.10253,0.03418 q 0.20507,0.1708984 0.75195,0.2050781 v -0.102539 q 0,-0.1367188 -0.44434,-0.1367188 z m 0.13672,1.4355469 -0.41015,0.1025391 q 0.0684,0.4101562 0.61523,0.4101562 h 0.10254 v -0.1025391 l -0.0684,-0.102539 q 0,-0.03418 0.27344,-0.2050781 v -0.1708985 q 0,-0.2392578 -0.13672,-0.2734375 h -0.13672 q -0.10254,0.03418 -0.23926,0.3417969 z m -6.52832,-0.3076172 -0.23926,0.068359 v 0.03418 q 0.27344,0.2734375 2.11915,0.3076172 h 0.23925 q 0.27344,0 0.3418,-0.1708985 v -0.068359 q -1.43555,-0.1708984 -2.46094,-0.1708987 z m 3.21289,0.4101563 0.13672,0.1708984 q 0.30762,0 0.30762,-0.3417969 h -0.1709 q -0.20508,0 -0.27344,0.1708985 z m 3.21289,0.6835937 -0.10254,0.1367188 v 0.068359 h 0.0684 l 0.10254,-0.1367187 v -0.068359 z m -2.63183,0.2050781 -0.44434,0.03418 h -0.47851 v 0.1367188 l 0.47851,0.03418 0.99121,-0.068359 v -0.1025391 h -0.13672 z m 3.48633,1.1621094 -0.13672,0.1025391 v 0.102539 h 0.20508 l 0.0342,-0.102539 -0.0342,-0.1025391 z"
             style="font-weight:300;font-size:35px;font-family:'Love Ya Like A Sister';letter-spacing:2.5;fill:#035578"
             id="path54" />
          <path
             d="m 154.45312,-22.158203 q 1.43555,0 3.48633,1.230469 1.74317,1.298828 1.74317,1.777343 1.36718,2.871094 1.36718,3.452149 l 0.0342,0.273437 q -0.51269,1.196289 -0.51269,1.640625 l -0.20508,0.03418 h -2.90527 q -0.41016,0 -0.99121,0.102539 -4.92188,-0.410156 -6.9043,-0.410156 h -0.71777 q -0.41016,0.615234 -0.41016,0.888672 0.23926,0.375976 0.23926,1.196289 0,1.298828 0.41015,1.538086 l 0.0342,0.170898 v 0.03418 l -0.20507,-0.102539 v 0.102539 l 0.30761,0.3417967 q 0,0.4443359 0.61524,1.1279297 1.12793,1.9824219 2.46093,2.4609375 1.12793,0.3759765 2.56348,0.3759765 0.23926,0 0.99121,-0.4443359 0.61524,-0.1367187 2.59766,-2.2216797 v -0.1025391 q 0,-0.068359 -0.47852,-0.1367187 l -0.0684,-0.1708984 q 0.78614,-1.5039066 1.87989,-1.9824216 0.30761,0.307617 1.26464,0.957031 0.75196,1.1621093 2.01661,2.7343749 v 0.1367188 q -1.09375,1.4355469 -1.57227,1.4355469 h -0.13672 q 0,-0.7519532 -0.92285,-0.8544922 -0.1709,0 -1.50391,1.1279297 -0.78613,0.6152343 -2.70019,1.1621093 -2.22168,0.444336 -3.14453,0.444336 l -1.94824,-0.6835938 q -1.64063,0 -3.00782,-1.7773437 -0.58105,-0.6152344 -0.95703,-1.4697266 0,-0.2734375 -0.75195,-2.8369143 -0.23926,-0.991211 -0.23926,-1.914062 v -0.03418 q 0,-4.545898 2.73438,-7.963867 0.34179,-0.854492 1.57226,-1.264649 0.82031,-0.239257 1.98242,-0.375976 0.30762,-0.136719 1.98242,0 z m -3.14453,0.717773 v 0.03418 h 0.0684 q 0.54688,0 2.05078,-0.375977 0.30762,-0.03418 0.30762,-0.170898 l -0.10254,-0.102539 h -0.0342 q -0.99121,0 -2.22168,0.546875 z m -1.36718,0.581055 v 0.03418 l 0.10254,0.06836 h 0.0342 q 0.6836,-0.170898 0.6836,-0.341797 v -0.205078 l -0.13675,-0.13672 h -0.0684 q -0.61523,0.205078 -0.61523,0.581055 z m 5.26367,-0.341797 h -1.02539 v 0.06836 q 0,0.136718 1.40136,0.205078 h 0.0342 v -0.136719 q 0,-0.06836 -0.41015,-0.136719 z m -2.42676,0.512695 v 0.03418 q 0,0.136719 1.40137,0.341797 l 0.0684,-0.03418 v -0.136718 q -0.27344,-0.375977 -0.92285,-0.375977 h -0.10254 q -0.44434,0.03418 -0.44434,0.170898 z m 2.08496,0.205079 v 0.03418 q 1.94824,1.12793 2.08496,1.12793 h 0.0342 l 0.3418,-0.136719 0.20508,0.06836 0.0342,-0.06836 v -0.03418 q -0.13672,-0.10254 -0.58106,-0.205079 l -0.68359,-0.307617 q -0.27344,-0.581054 -1.09375,-0.581054 h -0.10254 q -0.23926,0.03418 -0.23926,0.102539 z m -4.06738,0.991211 q 0.3418,-0.273438 1.36719,-0.581055 v -0.06836 l -0.0342,-0.06836 h -0.3418 q -0.99121,0.273438 -0.99121,0.717774 z m -1.81153,2.255859 v 0.102539 q 0,0.375977 6.22071,0.854492 l 0.34179,0.102539 0.44434,-0.03418 q 1.36719,0.444335 1.8457,0.444335 0,0.102539 0.20508,0.170899 0.20508,-0.307617 0.20508,-0.581055 v -0.649414 q 0,-0.444336 -1.70898,-1.982422 -0.78614,-0.786133 -1.77735,-0.888672 l -1.16211,-0.205078 q -2.83691,0.581055 -3.72558,1.401367 -0.37598,0.717774 -0.88868,1.26465 z m 0.37598,-2.050781 v 0.06836 h 0.0684 q 0.44434,-0.102539 0.44434,-0.239258 v -0.03418 h -0.1709 q -0.1709,0 -0.3418,0.205078 z m 8.16895,0.478515 q 0.0684,0.273438 0.30761,0.273438 h 0.0684 l 0.0684,-0.102539 v -0.205078 l -0.13672,-0.170899 q -0.30761,0 -0.30761,0.205078 z m -8.81836,0.170899 -0.0684,0.102539 v 0.03418 h 0.0684 l 0.13672,-0.102539 v -0.03418 z m 9.67285,0.273437 h -0.13672 q 0.37598,1.12793 0.54688,1.230469 h 0.13671 l 0.10254,-0.06836 q -0.27343,-1.09375 -0.58105,-1.09375 z m -9.36524,0.615235 q 0.20508,-0.03418 0.20508,-0.273438 v -0.03418 q -0.20508,0.06836 -0.20508,0.307618 z m 10.52735,0.922851 -0.10254,0.06836 v 0.239257 l 0.10254,0.136719 q 0.13672,-0.03418 0.13672,-0.239258 v -0.136718 l -0.0342,-0.06836 z m -10.90332,0.478516 v 0.136719 l 0.0684,0.06836 h 0.0684 q 0.23925,-0.102539 0.41015,-0.375977 v -0.102539 h -0.1709 q -0.20507,0 -0.37597,0.273438 z m -1.40137,-0.205078 q -0.27344,0.273437 -0.47851,1.367187 h 0.0684 q 0.20508,0 0.61524,-1.196289 -0.0684,-0.170898 -0.20508,-0.170898 z m 3.48633,0.410156 v 0.102539 q 0.64941,0.444336 2.3584,0.444336 h 0.30761 l 0.44434,-0.03418 v -0.136719 q -1.40137,-0.307617 -3.11035,-0.375976 z m 6.25488,0.888672 h -0.10254 v 0.102539 h 0.10254 z m -6.59668,0.273437 v 0.06836 q 0.6836,0.170898 3.62305,0.341796 v 0.03418 0.03418 l -0.71777,0.102539 q 0,0.102539 0.88867,0.102539 1.43554,0 1.43554,-0.136719 0,-0.341797 -5.22949,-0.546875 z m -3.45215,0.239258 h -0.17089 v 0.205078 q 0,0.205078 0.10253,0.205078 0.1709,0 0.20508,-0.341797 z m 2.76856,0.06836 -0.1709,0.03418 v 0.205078 h 0.1709 v -0.136719 -0.06836 z m -1.09375,0.273438 v 0.03418 h 0.0342 l 0.58105,-0.06836 v -0.06836 l -0.10254,-0.136719 h -0.10254 q -0.30761,0 -0.41015,0.239258 z m 8.30566,0.06836 q 0,0.136719 0.61524,0.136719 l 0.30761,-0.03418 v -0.06836 q 0,-0.136719 -0.64941,-0.136719 -0.27344,0.06836 -0.27344,0.10254 z m -10.15136,0.888672 v 0.102539 0.03418 q -0.0342,0.102539 -0.0342,0.478516 v 0.136718 q 0,0.615235 0.34179,1.09375 h 0.0342 q 0,-1.640625 -0.34179,-1.845703 z m 0.61523,2.973633 h -0.10254 v 0.06836 l 0.10254,0.06836 h 0.0684 v -0.06836 z m 0.23926,0.5810547 -0.0342,0.03418 v 0.068359 q 0.13672,0.546875 0.41015,0.546875 v -0.03418 -0.068359 q 0,-0.2734375 -0.37597,-0.546875 z m 11.14258,0.3076172 0.0684,0.102539 h 0.1709 q 0.20508,0 0.23926,-0.1367187 l -0.13672,-0.1367188 h -0.0342 q -0.23926,0 -0.30761,0.1708985 z m -0.78614,1.9824219 0.0684,0.03418 h 0.0342 q 0.37598,0 0.47852,-0.4443359 v -0.068359 q -0.37598,0 -0.58106,0.4785157 z m 2.39258,-0.068359 0.0342,0.03418 h 0.10254 q 0.20508,-0.1367188 0.20508,-0.3759766 h -0.10254 q -0.23926,0.1367188 -0.23926,0.3417969 z m 1.19629,-0.3417969 h -0.0342 v 0.068359 q 0.10254,0.4101562 0.30762,0.4101562 h 0.0342 l 0.0684,-0.068359 v -0.03418 q -0.0684,-0.3759766 -0.37598,-0.3759766 z m -1.98242,0.7177734 0.10254,0.068359 q 0.51269,-0.1708984 0.51269,-0.4443359 v -0.068359 h -0.0342 q -0.47851,0 -0.58105,0.4443359 z m -2.66602,0.7519532 h 0.0684 q 0.27344,-0.1025391 0.30762,-0.3417969 l -0.0342,-0.03418 q -0.3418,0.2050781 -0.3418,0.3759766 z m 2.0166,0.1708984 h 0.13672 q 0.3418,-0.3076172 0.3418,-0.4443359 h -0.0342 q -0.44434,0.1367187 -0.44434,0.4443359 z m -9.70703,0.3076172 h -0.10254 v 0.1367187 q 0.0684,0.1708985 0.58106,0.3759766 l 0.13672,0.1025391 q -0.37598,-0.5810547 -0.61524,-0.6152344 z m 2.39258,0.1367187 h -0.0342 v 0.03418 q 0,0.1367188 0.71777,0.3076172 l 0.0342,-0.03418 v -0.068359 q -0.44433,-0.2392579 -0.71777,-0.2392582 z m 2.0166,0.3759766 h -0.10254 v 0.1025391 h 0.10254 z m 3.55469,0.5126953 q 0.3418,0 0.54687,-0.5126953 h -0.10253 q -0.44434,0.2392578 -0.44434,0.5126953 z m -2.39258,0.3417969 -0.71777,-0.068359 h -0.13672 q -0.30762,0 -0.3418,0.1367188 v 0.068359 l 0.13672,0.1025391 h 0.61524 q 1.05957,0 2.49511,-0.3759766 -0.0684,-0.2050781 -0.41015,-0.2050781 h -0.1709 q -0.82031,0 -1.46973,0.3417968 z"
             style="font-weight:300;font-size:35px;font-family:'Love Ya Like A Sister';letter-spacing:2.5;fill:#035578"
             id="path56" />
          <path
             d="m 166.28418,-22.226562 0.0684,-0.06836 q 0.78613,0.136719 1.64062,0.136719 h 2.80274 l 0.10254,0.102539 q -0.20508,0.615234 -0.20508,0.957031 v 0.581055 q 0.13672,0.957031 0.54687,0.957031 0.20508,-0.375976 1.36719,-0.717773 2.76856,-1.196289 4.51172,-1.196289 1.16211,0 2.49512,1.02539 0.99121,0.375977 1.91406,1.606446 1.40137,2.221679 1.40137,5.229492 v 0.273437 l -0.23926,2.460938 0.23926,1.7773435 -0.3418,1.6064453 v 0.068359 0.2734375 l 1.29883,0.068359 h 0.58105 q 0.58106,0 0.6836,0.102539 -0.13672,2.4951172 -0.5127,2.4951172 -0.68359,0.4101563 -1.46972,0.4101563 h -0.71778 q -1.64062,0 -3.45215,0.4443359 -1.19629,-0.1708984 -1.19629,-1.1962891 l -0.0342,-1.2304687 q 0,-1.1279297 0.58106,-1.640625 0.30762,-1.6748047 0.71777,-3.0419929 l 0.20508,-3.041992 q 0.10254,0 0.10254,-0.751953 0,-0.922851 -1.46973,-2.631836 -1.12793,-0.478515 -1.29882,-0.478515 -1.98243,0 -3.55469,1.674804 -0.13672,0 -1.67481,1.674805 -0.47851,0.375977 -0.47851,2.290039 0.0684,3.4521487 0.23926,3.4521487 1.36718,0.2392578 1.36718,0.5126953 v 0.1367188 l -0.75195,-0.03418 -0.54688,0.03418 v 0.1367187 q 0,0.1367188 1.29883,0.3417969 0.23926,0.2392578 0.23926,0.7861328 v 0.068359 q 0,0.8203125 -0.3418,1.743164 l -3.96484,0.03418 q -0.58105,0 -0.85449,-0.5810547 -0.13672,-0.649414 -0.30762,-2.5292968 0,-0.1708985 1.02539,-0.3759766 l 0.1709,-0.2392578 v -0.03418 q 0,-0.2050781 -0.27344,-0.5810547 v -1.0595706 -1.948242 l 0.13672,-3.144531 q 0,-3.212891 -0.27344,-3.212891 h -0.1709 l -1.60644,0.205079 q -0.23926,0 -0.64941,-0.410157 v -0.136718 q 0.17089,-0.273438 0.17089,-0.581055 l -0.0684,-1.264649 z m 2.97363,0.615234 -2.80273,0.444336 v 0.06836 q 0,0.102539 0.51269,0.136719 2.22168,0 2.22168,-0.307617 l 0.13672,-0.205078 v -0.06836 h -0.0684 z m 6.80176,0.649414 v 0.03418 q 0.23926,0 0.82031,0.410156 l 0.37598,0.102539 1.09375,-0.03418 0.0342,-0.06836 v -0.03418 q -0.0342,-0.205078 -0.37598,-0.205078 h -0.13672 l -0.34179,0.06836 q -0.75196,-0.444335 -1.09375,-0.444335 -0.30762,0 -0.37598,0.170898 z m -2.32422,0.615234 v 0.03418 l 0.0684,0.102539 q 1.60645,-0.410156 1.60645,-0.615234 h -0.0684 q -0.75196,0 -1.60645,0.478515 z m -6.59668,0.03418 0.10254,0.102539 h 0.0684 q 0.44434,-0.03418 0.44434,-0.205078 l -0.1709,-0.03418 q -0.44434,0 -0.44434,0.136719 z m 0.30762,0.683594 v 0.06836 l 0.64941,-0.03418 h 0.10254 q 0.3418,0 0.41016,0.170899 v 0.102539 q -0.1709,0.170898 -0.1709,0.341797 0.1709,0.136719 0.41016,0.136719 0.10254,0 0.10254,-0.136719 l 0.0342,-1.12793 -0.0342,-0.102539 h -0.10254 q -0.20508,0.136719 -1.36719,0.546875 z m 5.67383,-0.375977 0.0342,0.03418 v 0.03418 q 0.30761,-0.102539 0.30761,-0.170899 v -0.06836 h -0.0684 q -0.27343,0.06836 -0.27343,0.170898 z m -6.9043,0.03418 v 0.03418 q 0,0.102539 0.1709,0.170898 0.27344,0 0.61523,-0.307617 v -0.03418 h -0.54687 q -0.23926,0.03418 -0.23926,0.136719 z m 11.79199,0.546875 q 0,0.136719 0.61524,0.205078 0.13672,-0.102539 0.13672,-0.273437 0,-0.170899 -0.54688,-0.273438 -0.20508,0.136719 -0.20508,0.341797 z m -6.90429,0.273437 v 0.136719 q 0.47851,0 1.02539,-0.615234 v -0.03418 l -0.0342,-0.03418 h -0.0342 q -0.41016,0 -0.95703,0.546875 z m 8.20312,-0.478515 -0.10254,0.136719 q 0.0684,0.170898 0.27344,0.170898 h 0.1709 l 0.1709,-0.136719 v -0.03418 q -0.0342,-0.136719 -0.3418,-0.136719 z m -3.79394,0.341797 v 0.06836 h 0.17089 q 0.5127,-0.06836 0.5127,-0.205078 v -0.06836 h -0.23926 q -0.44433,0.03418 -0.44433,0.205078 z m -5.60547,-0.170899 h -0.1709 l -0.0684,0.205078 v 0.615235 q 0,0.410156 -0.13672,0.546875 v 0.170898 l 0.13672,0.478516 v 0.273437 q 0,0.273438 0.1709,0.375977 0.0342,0 0.20508,-0.786133 0.47851,-0.375977 0.47851,-0.581055 0,-0.170898 -0.37598,-0.751953 -0.10253,-0.546875 -0.23925,-0.546875 z m -3.41797,0.546875 v 0.06836 h 0.34179 l 0.13672,-0.136719 v -0.03418 l -0.1709,-0.06836 q -0.30761,0.102539 -0.30761,0.170899 z m 12.23633,0.102539 -0.20508,-0.102539 -0.0684,0.06836 v 0.03418 l 0.1709,0.102539 h 0.0342 z m -2.63184,0.239258 0.0684,0.06836 h 0.0342 q 0.75195,0 0.75195,-0.136718 l -0.27344,-0.06836 q -0.58105,0.06836 -0.58105,0.136719 z m -4.95605,1.333008 v 0.102539 q 0.88867,-0.102539 2.46093,-1.469727 v -0.03418 h -0.20508 q -0.13671,0 -0.82031,0.478515 -1.43554,0.444336 -1.43554,0.922853 z m 8.16894,-1.333008 h -0.0342 v 0.102539 q 0,0.102539 0.44434,0.957031 0,0.273438 0.13672,0.273438 l 0.13671,-0.136719 v -0.136719 q 0,-0.546875 -0.68359,-1.05957 z m -10.62988,0.410156 0.0684,0.102539 h 0.0684 l 0.10254,-0.444336 h -0.10254 q -0.10254,0 -0.13672,0.341797 z m 8.61328,0.239258 v 0.102539 h 0.85449 l 0.13672,-0.102539 v -0.136719 l -0.1709,-0.102539 h -0.1709 q -0.64941,0.102539 -0.64941,0.239258 z m -3.38379,0.546875 q 0.75195,-0.136719 0.75195,-0.375976 l -0.10254,-0.06836 h -0.10254 q -0.51269,0 -0.54687,0.444336 z m -1.09375,0.410156 v 0.06836 h 0.10254 q 0.54687,-0.444336 0.54687,-0.751953 h -0.0684 v -0.06836 q -0.27343,0 -0.58105,0.751953 z m -2.63184,-0.341796 0.0684,0.205078 q 0,0.273437 -0.30761,0.546875 0.17089,0.170898 0.17089,0.341797 0,1.708984 0.23926,1.708984 h 0.0342 q 0.27344,-0.615235 0.27344,-1.606445 -0.0342,-1.264649 -0.30762,-1.333008 h -0.0684 q -0.10254,0 -0.10254,0.136719 z m 9.63868,0.444335 v 0.10254 q 0.41015,1.538085 0.51269,1.606445 l 0.0684,-0.239258 v -0.307617 q -0.23926,-1.16211 -0.58105,-1.16211 z m 1.53808,0.06836 h -0.0342 q 0.0684,1.811523 0.3418,1.811523 h 0.0684 q -0.1709,-1.811523 -0.37598,-1.811523 z m -8.95508,0.06836 -0.20507,0.273438 v 0.06836 l 0.0342,0.06836 h 0.17089 l 0.10254,-0.410156 z m -0.95703,0.341797 -0.0684,0.06836 0.0684,0.10254 h 0.13672 v -0.10254 l -0.0684,-0.06836 z m 9.67285,4.033203 v 0.03418 l 0.10254,0.410156 h 0.1709 q -0.0342,-0.444336 -0.27344,-0.444336 z m -1.29882,2.4609377 0.0342,0.03418 h 0.0342 q 0.10253,0 0.10253,-0.3417977 v -0.410156 q -0.13671,0 -0.17089,0.717774 z m -0.20508,0.546875 q 0.20508,0.2392578 0.20508,0.649414 h 0.0684 l 0.10253,-0.4101562 v -0.5810547 q -0.37597,0 -0.37597,0.3417969 z m 1.5039,-0.3076172 h -0.0684 v 0.1708984 h 0.0684 z m 0.78614,0.1708984 -0.0684,0.6835938 v 0.8544922 h 0.0342 q 0.44433,-0.546875 0.44433,-1.0253907 v -0.03418 q 0,-0.4785157 -0.41015,-0.4785157 z m -0.88868,1.5722657 v 0.068359 h 0.0342 l 0.13672,-0.3759765 v -0.06836 h -0.0684 q -0.10254,0 -0.10254,0.3759766 z m -13.19335,0.1367187 -0.0684,0.1367188 v 0.03418 q 0.0684,0.6152343 0.44433,0.6152343 h 0.20508 l 0.10254,-0.102539 v -0.068359 Q 168.1982,-7.5292952 168.1982,-7.768553 Z m 13.29589,0.4785156 h -0.13671 v 0.1367188 l 0.13671,0.1367187 0.10254,-0.068359 v -0.068359 z m 1.84571,0.7861329 v 0.102539 q 1.53808,0 1.53808,-0.2392578 v -0.068359 h -0.47851 q -1.05957,0.03418 -1.05957,0.2050778 z m -13.70606,0.3417968 q 0,0.1708985 0.88867,0.1708985 1.70899,0 1.70899,-0.1708985 0,-0.2050781 -1.16211,-0.2050781 -1.29883,0 -1.43555,0.2050781 z m 9.2627,0.1025391 h -0.10254 v 0.2050781 l 0.10254,0.1025391 h 0.10254 l 0.0342,-0.1025391 v -0.03418 z m 4.75097,0.2734375 v 0.1025391 q 0.0684,0.1708984 0.30762,0.1708984 0.54688,0 0.64942,-0.2392578 v -0.1025391 q -0.0684,-0.2050781 -0.37598,-0.2050781 h -0.1709 q -0.3418,0 -0.41016,0.2734375 z m -3.99902,0.6152344 q 0.10254,0.2734375 0.3418,0.2734375 1.8457,-0.03418 1.8457,-0.2392578 -0.23926,-0.3076172 -0.85449,-0.3076172 -1.33301,0.03418 -1.33301,0.2734375 z m -0.85449,0.649414 -0.13672,0.1367188 v 0.068359 q 0,0.2392578 0.92285,0.2392578 h 0.1709 l 0.27344,-0.068359 v -0.03418 q -0.3418,-0.3417969 -1.09375,-0.3417969 z"
             style="font-weight:300;font-size:35px;font-family:'Love Ya Like A Sister';letter-spacing:2.5;fill:#035578"
             id="path58" />
          <path
             d="m 195.20508,-25.473633 0.51269,-0.136719 q 0.88868,0 5.09278,1.025391 1.98242,0.922852 2.29004,0.922852 0.27343,-0.375977 0.27343,-0.957032 v -0.06836 -0.239258 q 0,-0.444336 0.61524,-0.444336 0.41015,-0.307617 1.16211,-0.307617 1.02539,0 1.02539,0.239258 l 0.30761,3.212891 v 0.99121 q 0,1.230469 -0.34179,1.469727 -0.30762,0.307617 -0.47852,0.307617 -1.91406,-0.170898 -1.91406,-0.512695 -0.23926,-0.820313 -1.19629,-1.196289 -3.28125,-1.640625 -4.7168,-1.640625 l -0.95703,-0.06836 q -1.70898,0 -2.0166,0.649415 -0.41016,0.546875 -0.41016,1.469726 v 0.03418 q 0,1.879883 1.94825,3.110351 1.94824,0.786133 3.38379,0.786133 0,0.273438 1.53808,0.751953 0.30762,0.512696 1.33301,0.512696 1.05957,0.410156 3.04199,2.597656 l 0.13672,0.136719 v 0.136718 q 0,0.06836 -0.20508,0.06836 v 0.06836 q 0.47852,1.025391 0.47852,1.196289 0,3.076172 -0.99121,3.8623048 -0.44434,0.9228516 -1.87989,1.8115235 -1.60644,1.4697265 -3.28125,1.4697265 h -1.19628 q -2.7002,-0.4101562 -2.7002,-0.6835937 -1.57227,-1.09375 -1.81152,-1.09375 -1.67481,-0.7861328 -2.32422,-1.640625 h -0.13672 q -0.41016,1.196289 -0.68359,1.196289 -2.15332,-0.3417968 -2.15332,-0.7519531 -0.20508,-0.5810547 -0.23926,-2.973633 l 0.34179,-2.11914 q 0,-1.16211 0.27344,-1.16211 l 2.1875,-0.239258 q 0.23926,0 0.47852,1.879883 l 0.95703,1.743164 q 0,0.1025393 3.04199,2.0507815 0.75195,0.8544922 2.15332,0.8544922 h 1.19629 q 1.81152,0 2.46094,-1.1621094 0.78613,-0.8544922 1.16211,-2.4951173 v -0.102539 q 0,-0.991211 -1.74317,-2.495117 -0.75195,-0.854492 -1.91406,-0.854492 -0.68359,-0.307618 -3.07617,-0.649414 l -2.73438,-1.401368 -1.333,-1.127929 q -0.8545,-1.298828 -0.92286,-1.845703 l 0.0684,-0.581055 -0.13672,-1.298828 q 0,-0.478516 0.58106,-1.12793 0,-0.410156 1.64062,-1.879883 1.53809,-0.820312 1.81153,-1.298828 z m 0.34179,0.341797 v 0.136719 q 0,0.136719 0.44434,0.239258 0.92285,-0.06836 0.92285,-0.239258 v -0.136719 q 0,-0.239258 -0.95703,-0.239258 -0.27344,0 -0.41016,0.239258 z m 8.9209,-0.06836 v 0.06836 q 0.37598,0.615234 0.64942,0.615234 0.27343,0 0.41015,-0.341796 v -0.136719 q 0,-0.205078 -1.05957,-0.205078 z m 1.19629,1.05957 -0.10254,0.136719 0.10254,0.06836 h 0.1709 v -0.205078 z m -9.16015,0.512695 q 0.13671,0.136719 0.34179,0.136719 0.3418,0 0.71778,-0.375976 l -0.1709,-0.136719 h -0.37598 q -0.51269,0 -0.51269,0.375976 z m 4.64843,-0.03418 v 0.03418 q 0,0.102539 0.41016,0.136719 h 0.10254 v -0.03418 q 0,-0.06836 -0.5127,-0.136718 z m -3.07617,0.444336 -0.13672,0.136718 q 0,0.239258 1.23047,0.307618 v -0.10254 q 0,-0.136718 -1.02539,-0.341796 z m -4.78515,1.05957 v 0.03418 l 0.0684,0.03418 h 0.13672 q 0.75196,-0.546875 0.75196,-0.888672 h -0.0342 -0.0684 q -0.37598,0 -0.85449,0.820313 z m 10.01464,-0.581055 -0.0684,0.06836 q 0.47852,0.375976 1.09375,0.512695 l 0.0342,-0.06836 v -0.06836 q 0,-0.170898 -0.99121,-0.444336 z m -10.15136,0.06836 -0.10254,0.03418 0.0342,0.06836 v 0.03418 l 0.13672,-0.03418 v -0.102539 z m 8.4082,0.273437 -0.0342,0.03418 v 0.06836 q 1.05957,0.615235 1.33301,0.615235 v -0.03418 q 0,-0.205078 -1.29883,-0.683594 z m -9.36523,0.102539 h -0.1709 l -0.0342,0.239258 v 0.102539 l 0.0342,0.06836 0.1709,-0.341796 z m -0.3418,0.820313 -0.10254,0.03418 q 0.0684,0.649414 0.1709,0.922852 h 0.10254 v -0.03418 l -0.0342,-0.922851 z m 0.92285,0.307617 -0.13672,0.102539 v 0.102539 h 0.10254 l 0.1709,-0.136719 v -0.06836 z m 11.4502,0.888672 -0.13672,0.06836 q 0.27343,0.170899 0.99121,0.170899 l 0.68359,-0.03418 v -0.136719 q -0.61523,-0.06836 -1.26465,-0.06836 z m -10.01465,1.914062 -0.0684,0.03418 v 0.06836 l 0.0684,0.102539 h 0.34179 v -0.102539 q -0.0342,-0.102539 -0.34179,-0.10254 z m -1.57227,0.102539 -0.0684,0.102539 v 0.03418 l 0.0684,0.06836 h 0.10254 v -0.102539 z m 0.61524,0.205078 h -0.0342 v 0.06836 q 0.23925,0.751953 0.47851,0.751953 h 0.13672 l 0.1709,-0.170899 v -0.03418 q -0.44434,-0.615235 -0.75195,-0.615235 z m 1.70898,0 -0.0684,0.06836 v 0.205078 l 0.20508,0.205078 h 0.10254 l 0.10254,-0.06836 v -0.170899 q -0.13672,-0.239258 -0.3418,-0.239258 z m 1.09375,0.820313 -0.0684,0.06836 v 0.03418 q 0.44434,0.410156 1.33301,0.717773 l 0.0684,-0.102539 q 0,-0.205078 -1.33301,-0.717774 z m 1.87988,0.854492 q 0,0.136719 2.42676,0.717773 l 0.44434,0.03418 h 0.10254 v -0.03418 q -1.02539,-0.786132 -2.49512,-0.922851 -0.47852,0.170898 -0.47852,0.205078 z M 195,-16.245117 h -0.0342 q 0,0.239258 0.44434,0.375976 l 0.0684,-0.03418 q 0,-0.170899 -0.47852,-0.341797 z m 3.34961,0.854492 v 0.136719 l 0.58105,0.205078 h 0.37598 v -0.102539 q -0.61523,-0.239258 -0.95703,-0.239258 z m 3.65723,0.478516 h -0.30762 v 0.102539 q 0.20508,0.205078 1.81152,1.02539 0.6836,0.615235 1.05957,0.615235 h 0.0342 l 0.0684,-0.102539 q -0.78613,-1.025391 -2.66601,-1.640625 z m 0.85449,2.084961 h -0.0342 v 0.170898 q 0,0.341797 0.58105,0.820312 h 0.20508 v -0.273437 q 0,-0.410156 -0.75195,-0.717773 z m -12.30469,0.478515 h -0.1709 v 0.136719 l 0.0684,0.06836 0.13672,-0.06836 z m -1.33301,2.7343752 0.0342,0.8544922 h 0.0342 q 0.23926,-0.1367188 0.23926,-1.6064454 v -0.273437 l -0.0684,-0.06836 h -0.0684 q -0.10254,0 -0.1709,1.0937502 z m 14.25293,-0.5468752 h -0.1709 v 0.1708986 l 0.10254,0.03418 0.10254,-0.1025396 z m 1.94824,0 -0.27343,0.2734377 v 0.1708984 l 0.0684,0.1025391 h 0.10254 q 0.20507,-0.03418 0.20507,-0.5468752 z m -13.53515,1.1621096 h -0.10254 v 0.1367187 q 0.51269,0.6494141 0.99121,0.6494141 h 0.0684 v -0.1025391 q -0.75195,-0.6835937 -0.95703,-0.6835937 z m 10.5957,1.2304687 v 0.1367188 h 0.0684 q 0.30762,-0.2050782 0.5127,-0.5810547 l -0.0684,-0.1025391 q -0.27344,0.1708984 -0.5127,0.546875 z m -12.16797,-0.068359 h -0.1709 v 0.1367188 l 0.1709,0.1025391 0.13672,-0.03418 v -0.068359 z m 14.01367,0.3759766 -1.1621,0.9570313 v 0.068359 q 0,0.068359 0.13671,0.068359 0.41016,0 1.12793,-1.09375 z m -8.13476,1.5380859 -0.99121,-0.068359 v 0.068359 q 0,0.1367188 0.88867,0.3417969 l 0.13672,0.1367188 h 0.1709 q -0.0684,-0.4785157 -0.20508,-0.4785157 z m 1.12793,0.4785157 -0.10254,-0.1025391 v 0.1367188 h 0.10254 z m -0.30762,0.3759765 h -0.0684 l 0.13672,0.1708985 h 0.27344 v -0.03418 q -0.0342,-0.1367188 -0.3418,-0.1367188 z m 3.96485,0 L 200.91309,-5 v 0.1025391 l 0.0684,0.068359 h 0.13671 Q 201.76758,-4.8632812 201.76758,-5 l -0.10254,-0.068359 z m -3.28125,0.2050782 q 0.47851,0.2734375 1.29882,0.2734375 h 0.0684 l 1.46973,-0.068359 v -0.068359 Q 200.43457,-5 198.17871,-5 q -0.47851,0 -0.47851,0.1367192 z"
             style="font-weight:300;font-size:35px;font-family:'Love Ya Like A Sister';letter-spacing:2.5;fill:#035578"
             id="path60" />
          <path
             d="m 220.43457,-23.901367 v -0.06836 q 0.30762,0.307618 1.36719,0.478516 0.68359,0 2.87109,1.572266 l 0.44434,0.170898 h 0.1709 l 0.61523,0.307617 q 0.92285,0.649414 1.05957,0.991211 v 0.06836 q 0,0.136718 -0.41016,0.512695 -0.10253,0.581055 -1.43554,2.255859 v 0.136719 l 0.0342,0.341797 q -0.47852,0 -0.95703,0.239258 -0.20508,0 -0.37598,-0.478516 -0.99121,-0.615234 -0.99121,-0.991211 l 0.41015,-1.09375 q 0,-0.649414 -2.25585,-0.922851 l -2.22168,-0.136719 q -1.16211,0 -3.17872,0.922851 -1.09375,0.581055 -1.70898,2.392579 -0.47852,1.606445 -0.78613,1.914062 l -0.3418,-0.239258 q -0.23926,0.239258 -0.23926,0.786133 l 0.44434,-0.239258 q 0.10254,0 0.13672,0.239258 l -0.23926,1.572266 q 0.13672,0.03418 0.64941,2.016601 l -0.10254,0.205078 v 0.136719 q 0.1709,0.170899 0.27344,1.1279298 0.30762,1.0253906 1.94824,1.8457031 l 1.81153,1.3330079 q 3.04199,0 5.36621,-1.3330079 2.32422,-2.0166015 2.32422,-2.6318359 l -0.13672,-0.512695 v -0.06836 q 0.0684,-0.205078 1.5039,-1.640625 0.0684,0 0.54688,0.478516 v 0.136719 l -0.13672,0.03418 -0.27344,-0.03418 h -0.0342 v 0.136718 q 1.29883,0.102539 1.29883,0.649414 0.54688,0.717774 1.12793,2.1875005 0.20508,0 0.3418,0.8203125 0.41015,0.1708984 0.47851,0.3759766 0,0.3076172 -0.41015,0.3417968 -0.78613,0.2392579 -1.46973,1.1279297 -1.19629,-1.196289 -1.26465,-1.196289 l -1.87988,1.196289 q -0.92285,0.4785157 -1.74316,1.1279297 l -3.52051,1.1279297 -0.54688,0.068359 q -1.09375,0 -3.24707,-0.6835938 -2.32422,-0.9912109 -2.52929,-1.5380859 -2.8711,-3.4521485 -2.8711,-5.3320308 l -0.10254,-1.162109 q 0.27344,-1.298829 0.27344,-2.939454 l 0.92285,-2.221679 q 0,-0.957031 1.29883,-2.460938 0.64941,-1.538086 3.72559,-2.905273 1.16211,-0.375977 3.96484,-0.546875 z m -5.74219,1.845703 v 0.136719 l 1.77735,-0.683594 1.12793,-0.512695 q 0.64941,-0.136719 0.64941,-0.239258 v -0.03418 q -1.46973,0 -3.52051,1.333008 z m 6.7334,-1.09375 -0.20508,-0.03418 -0.0684,0.03418 v 0.102539 l 0.10254,0.06836 h 0.1709 z m -3.41797,1.05957 v 0.170899 l 0.37598,0.06836 q 2.0166,0 2.25586,-0.341797 0,-0.102539 -0.54688,-0.136719 -1.5039,0.03418 -2.08496,0.239257 z m 3.34961,0 h -0.41015 v 0.03418 q 0,0.205078 0.68359,0.273437 l 0.10254,-0.136718 q 0,-0.170899 -0.37598,-0.170899 z m 0.75195,0.307617 h -0.0684 v 0.03418 l 0.10253,0.170899 h 0.10254 v -0.102539 z m -5.43457,0.341797 v 0.136719 h 0.13672 q 0.78614,-0.170898 0.78614,-0.341797 l -0.10254,-0.102539 h -0.0684 q -0.75196,0.239258 -0.75196,0.307617 z m -2.46093,-0.239257 -0.1709,0.136718 v 0.102539 h 0.10254 l 0.20508,-0.205078 v -0.03418 z m 4.375,0.615234 0.34179,0.06836 h 0.0342 q 1.09375,-0.03418 1.16211,-0.239258 V -21.33789 H 219.751 q -1.16211,0 -1.16211,0.273438 z m 2.52929,-0.239258 h -0.30761 v 0.06836 q 0,0.10254 0.92285,0.170899 v -0.06836 z m 2.90528,0.444336 h -0.1709 v 0.136719 h 0.0684 l 0.10254,-0.102539 z m -8.44239,0.06836 -0.13671,0.205079 v 0.03418 h 0.13671 l 0.10254,-0.136719 z m 10.11719,0.751954 v 0.03418 l 0.20508,0.06836 h 0.0342 l 0.1709,-0.205079 v -0.1709 l -0.0684,-0.06836 q -0.3418,0 -0.3418,0.341797 z m -11.96289,0.341796 h 0.0684 q 0.47852,-0.273437 0.47852,-0.546875 -0.41016,0 -0.54688,0.546875 z m -1.09375,1.333008 v 0.03418 l 0.10254,0.102539 h 0.0342 q 0.37598,-0.307617 0.37598,-0.581055 v -0.06836 h -0.0684 q -0.44434,0.239258 -0.44434,0.512695 z m 0.20508,0.751953 h -0.10254 l -0.61523,1.059571 v 0.170898 l 0.10254,0.136719 h 0.10253 q 0.13672,0 0.5127,-1.12793 z m -1.40137,4.44336 v 0.102539 q 0,0.341797 0.30762,0.410156 0.23926,0 0.0684,-1.09375 l -0.0342,-0.170898 h -0.10254 q -0.10254,0 -0.23926,0.751953 z m 1.05957,0.615234 q -0.20508,0.170898 -0.20508,0.546875 0,0.170898 0.30762,0.683594 0.20508,0.581054 0.5127,0.581054 v -0.102539 q 0,-0.512695 -0.61524,-1.708984 z m 14.97071,1.572266 h -0.13672 v 0.136718 q 0,0.410157 1.29883,2.6318364 l 0.20507,0.03418 0.10254,-0.1025391 q -0.54687,-0.9228516 -0.99121,-2.1191413 z m -0.82032,0.683593 v 0.06836 q 0.23926,0.7519529 0.44434,0.7519529 l 0.0684,-0.1367187 v -0.1367188 q -0.13672,-0.5468754 -0.5127,-0.5468754 z m -14.18457,0.4443364 h -0.10254 v 0.1708984 q 0.13672,0.3417969 0.44434,0.3417969 0,-0.2734375 -0.3418,-0.5126953 z m 11.99707,1.2988281 h 0.0684 q 0.1709,-0.03418 0.44434,-0.4785156 v -0.1025391 q -0.3418,0 -0.5127,0.5810547 z m -11.34765,-0.546875 v 0.2050781 q 0.1709,0.3076172 0.37597,0.3076172 h 0.0684 v -0.1708984 q -0.13672,-0.3417969 -0.44433,-0.3417969 z m -0.41016,0.8886719 h -0.20508 v 0.03418 q 0,0.5126953 1.09375,1.09375 h 0.30762 v -0.068359 q 0,-0.3759766 -1.19629,-1.059571 z m 14.79981,0.7177734 v 0.2050781 l 0.10253,0.068359 h 0.20508 q 0.10254,0 0.5127,-0.4785156 v -0.03418 q 0,-0.1025391 -0.58106,-0.2734375 -0.23925,0 -0.23925,0.512696 z m -5.16114,0.6152344 h 0.0342 l 0.0684,0.03418 q 0.85449,-0.3417969 0.85449,-0.7177735 -0.95703,0.444336 -0.95703,0.6835938 z m -8.5791,0.3076172 q 0.30762,0.5126953 2.46094,1.5380859 l 0.71777,0.2050781 h 0.0684 v -0.102539 q -2.1875,-0.9228516 -2.66601,-1.6064453 -0.1709,-0.1367188 -0.3418,-0.1367188 h -0.1709 q -0.0684,0 -0.0684,0.1025391 z m 1.29883,-0.1025391 h -0.10254 q 0,0.2734375 1.23047,0.6835938 l 1.6748,0.546875 h 0.3418 l 0.13672,-0.1367188 v -0.102539 h -0.0342 q -0.68359,0 -1.26465,-0.4785157 l -0.54687,-0.2050781 h -0.0684 l -0.20508,0.2050781 h -0.0342 q -0.23926,0 -1.12793,-0.5126953 z m 6.80176,1.09375 h 0.0684 q 0.75195,-0.2050781 1.19629,-0.7177734 v -0.03418 h -0.0684 q -0.3418,0 -1.19629,0.7519534 z M 220.91309,-6.09375 v 0.03418 h 0.0684 q 0.30761,0 0.37597,-0.1708984 v -0.068359 q -0.44433,0.03418 -0.44433,0.2050781 z m -1.91407,1.5039063 v 0.03418 q 0,0.1708985 0.71778,0.2392579 V -4.453125 l -0.0342,-0.068359 0.13672,-0.102539 -0.13672,-0.1708985 h -0.20508 q -0.47852,0.068359 -0.47852,0.2050782 z"
             style="font-weight:300;font-size:35px;font-family:'Love Ya Like A Sister';letter-spacing:2.5;fill:#035578"
             id="path62" />
          <path
             d="m 234.04297,-30.019531 0.68359,-0.03418 q 4.375,0.170899 4.375,0.786133 l 0.23926,5.024414 q 0,0.683594 -0.75195,3.452148 -0.1709,1.09375 -0.1709,1.435547 v 0.205078 h 0.10254 q 2.29004,-1.777343 5.22949,-1.777343 0.85449,0 3.14453,0.991211 0.44434,0.341796 1.12793,1.401367 0.23926,0.136719 0.30762,0.444336 l -0.0342,0.341797 q 0.95703,0.751953 0.95703,2.700195 0.10254,0 0.1709,3.349609 v 0.06836 q 0,0.615234 -0.54688,3.7597653 l -0.13672,0.649414 h 0.71778 q 1.12793,0.03418 1.12793,0.3076172 0,0.1367188 -1.09375,0.2392578 0,0.1367188 0.78613,0.3076172 l 0.13672,0.2050781 v 0.068359 q -0.64942,0.1025391 -0.64942,0.1708984 0.64942,0.1367188 0.64942,0.444336 0,1.6064453 -0.92285,1.6064453 l -0.27344,0.03418 q -1.33301,0 -1.33301,-0.3759766 0,-0.102539 -1.40137,-0.1708984 -0.61523,-0.3417969 -0.99121,-0.444336 l -0.0342,-0.1367187 q 0,-1.5039063 0.44434,-4.375 0.1709,-1.6748046 0.61523,-3.5546876 l -0.0684,-1.196289 0.10253,-0.170898 q -0.44433,-0.341797 -0.44433,-0.991211 -0.41016,-0.717774 -0.6836,-1.12793 -1.19628,-0.512695 -1.43554,-0.512695 -1.74317,-0.581055 -3.41797,0.136719 -2.22168,1.503906 -2.22168,2.221679 l -0.20508,2.22168 0.0684,2.290039 q -0.20508,2.5292967 -0.51269,2.5292967 l -0.0342,0.1708985 0.13671,0.03418 h 0.13672 l 0.58106,-0.2392578 q 0.82031,0.1367188 0.82031,0.546875 l -0.23926,0.2050782 v 0.1367187 q 0.0342,0.1025391 0.44434,0.2392578 l 0.0684,0.1708985 q -0.20508,1.7773437 -0.5127,1.7773437 h -0.10254 q -0.44433,-0.3076172 -3.65722,-0.4785156 -2.29004,-0.2050781 -2.29004,-0.6835938 v -0.546875 q -0.0342,-0.1367187 0.20508,-0.5126953 v -0.2050781 q -0.41016,-0.5810547 -0.41016,-0.6835938 0.1709,-0.1367187 1.64062,-0.1708984 0.23926,0 0.3418,-1.3330078 0.23926,-0.1367188 0.41016,-1.0595705 0.20508,-0.273438 0.20508,-0.581055 v -0.03418 q 0,-0.546875 -0.3418,-1.09375 l 0.3418,-0.820312 q 0.23925,0 0.27343,-7.485352 l 0.47852,-5.024414 v -1.503906 q 0,-0.751953 -0.47852,-0.751953 l -1.12793,-0.03418 -0.71777,0.205078 q -0.1709,0 -0.23926,-0.922851 v -0.341797 q 0,-1.503906 0.41016,-1.503906 z m -0.0684,24.3359373 v 0.068359 h 0.0684 q 0.44433,0 1.6748,0.444336 1.87989,0.03418 2.97364,0.2392578 h 0.10254 l 0.10253,-0.1367188 v -0.03418 q 0,-0.3417968 -3.24707,-0.3417968 -0.54687,-0.3417969 -1.36718,-0.3417969 -0.30762,0.03418 -0.30762,0.1025391 z M 248.125,-8.7597656 h 0.10254 q 0.23926,0 0.64941,-2.5634764 0,-0.375977 -0.23925,-0.478516 h -0.13672 q -0.20508,0 -0.37598,3.0419924 z m -1.02539,-7.1093754 0.20508,-0.546875 q 0.13672,0.273438 0.1709,0.410157 0.13671,0.239257 0.27343,0.239257 v -0.273437 q 0,-0.683594 -0.95703,-1.606445 l -0.1709,-0.03418 h -0.13672 v 0.136719 q 0.47852,0.478515 0.78614,1.02539 l -0.30762,0.512696 z m -10.15137,-8.168945 q -0.10254,0.205078 -0.10254,1.230469 0.41016,0 0.41016,0.615234 h 0.0342 q 0.10254,-0.205078 0.10254,-0.717773 v -0.444336 h -0.0342 l -0.13672,0.375976 h -0.13672 l -0.0342,-0.205078 q 0.0684,-0.273437 0.13672,-0.273437 l 0.20508,0.06836 q -0.0684,-0.205078 -0.44434,-0.649414 z m -1.74316,16.2011719 q 0,0.2392579 1.12793,0.3417969 h 0.0684 l 0.10254,-0.068359 v -0.2734375 q -0.0684,-0.102539 -0.27344,-0.102539 h -0.6836 q -0.34179,0 -0.34179,0.102539 z m 10.83496,1.7431641 h 0.0684 l 0.3418,0.03418 1.05957,-0.03418 0.0342,-0.03418 v -0.03418 q -0.3418,-0.2392578 -1.09375,-0.2392578 -0.30762,0 -0.41016,0.3076172 z m -12.44141,-0.6835937 v 0.102539 h 0.23926 1.19629 q 0,-0.2734375 -1.05957,-0.3076172 -0.3418,0 -0.37598,0.2050782 z m 9.74121,-11.2792973 -0.23925,0.03418 v 0.170899 q 0.75195,0.375976 0.95703,0.375976 l 0.13672,-0.170898 q 0,-0.205078 -0.8545,-0.410157 z m -8.54492,-11.484375 v 0.102539 q 0.41016,0.307618 1.16211,0.307618 l 0.0684,-0.136719 q -0.71777,-0.273438 -1.23047,-0.273438 z m 2.90528,13.637696 v 0.273437 h 0.10253 q 0.3418,0 0.44434,-0.615234 l 0.0342,-0.03418 v -0.170898 h -0.0342 q -0.23926,0.136718 -0.54687,0.546875 z m 0.34179,-13.466797 -0.13672,0.170898 q 0.10254,0.170899 0.30762,0.273438 h 0.0342 q 0.23926,0 0.30762,-0.170899 v -0.06836 l -0.13672,-0.205078 z m 8.16895,24.1308592 h -0.37598 v 0.1025391 q 0.0342,0.2050781 0.44434,0.2050781 h 0.34179 v -0.1025391 q 0,-0.102539 -0.41015,-0.2050781 z m -7.92969,-1.4355469 -0.0684,0.03418 v 0.1708984 l 0.20508,0.1708985 h 0.1709 l 0.1709,-0.1367188 v -0.03418 l -0.23926,-0.2050781 z m -2.80273,-21.6357423 -0.1709,0.03418 v 0.06836 q 0.0342,0.102539 0.23925,0.102539 h 0.27344 l 0.20508,-0.06836 v -0.102539 l -0.20508,-0.03418 z m 11.27929,21.0205079 v 0.1367188 h 0.27344 l 0.10254,-0.068359 v -0.1708984 l -0.10254,-0.1025391 q -0.20508,0 -0.27344,0.2050777 z m -8.68164,-7.9980469 0.10254,0.102539 h 0.23926 q 0.20508,0 0.23926,-0.102539 l -0.10254,-0.102539 h -0.13672 q -0.27344,0 -0.3418,0.102539 z m 7.82715,-4.511719 v 0.102539 q 0.13672,0.239258 0.5127,0.239258 v -0.102539 q -0.13672,-0.239258 -0.5127,-0.239258 z m -0.61523,2.597657 v 0.06836 q 0,0.307617 0.34179,0.307617 v -0.03418 q -0.0342,-0.341796 -0.34179,-0.341796 z m -7.99805,-8.886719 -0.0684,0.102539 v 0.239258 l 0.0684,0.102539 0.13672,-0.102539 v -0.205078 z m -2.08496,-2.768555 h -0.10254 v 0.03418 l 0.0342,0.136719 h 0.44433 v -0.136719 z m 4.2041,11.108399 h 0.10254 q 0.37598,-0.273438 0.37598,-0.341797 h -0.10254 q -0.3418,0.170898 -0.37598,0.341797 z m 9.0918,0.957031 -0.10254,0.102539 v 0.06836 l 0.20508,0.136719 h 0.0684 l 0.0684,-0.06836 -0.17089,-0.239258 z m -4.40918,-3.759766 h -0.0342 v 0.03418 q 0,0.102539 0.44433,0.205078 v -0.03418 q 0,-0.170898 -0.41015,-0.205078 z m -6.83594,-4.511719 -0.0684,0.10254 v 0.102539 l 0.10254,0.102539 0.13672,-0.03418 v -0.102539 L 237.29,-25.063477 Z m 5.19531,6.357422 h -0.23926 v 0.06836 l 0.10254,0.102539 h 0.23926 v -0.06836 z m -1.57226,1.572266 -0.13672,0.136719 v 0.102539 h 0.10254 l 0.13672,-0.136719 v -0.102539 z m 5.22949,11.4160156 -0.10254,0.102539 v 0.03418 l 0.10254,0.1025391 h 0.0684 l 0.0342,-0.1367188 z M 234.28223,-29.09668 h -0.0342 v 0.273438 h 0.0342 l 0.10254,-0.102539 v -0.102539 z m 14.458,16.713867 -0.10253,0.06836 0.10253,0.102539 h 0.0684 v -0.102539 z m -10.18554,5.2978521 h -0.13672 v 0.102539 h 0.13672 z m 4.16992,-10.5957031 -0.0684,0.06836 h 0.13672 v -0.06836 z m 4.61426,1.162109 -0.0342,0.06836 q -0.0684,0 0,-0.06836 l 0.0342,-0.03418 z"
             style="font-weight:300;font-size:35px;font-family:'Love Ya Like A Sister';letter-spacing:2.5;fill:#035578"
             id="path64" />
          <path
             d="m 256.6748,-21.953125 2.32422,0.786133 q 0.0342,0.512695 0.41016,1.09375 l 0.0684,0.375976 q -0.30762,2.1875 -0.1709,9.091797 0,0.9912112 0.82031,1.2988284 l 0.23926,0.546875 q 0,0.2050781 2.25586,0.3759765 h 0.13672 q 0.71777,0 1.77734,-1.5380859 0.82032,-0.820313 1.09375,-1.298828 h 0.1709 v -0.205078 l -0.0684,-0.170899 q 0.20508,-0.307617 0.30762,-0.922851 h 0.0342 v -0.307617 l 0.61523,-6.494141 v -0.615234 l -0.0684,-0.341797 v -0.03418 q 0.37598,-0.273437 0.37598,-0.854492 0,-0.375977 0.23926,-0.410156 l 0.78613,0.410156 h 0.75195 q 1.36719,0 1.94825,0.581055 v 0.136718 q -0.37598,0 -0.37598,0.136719 l 0.3418,0.786133 h 0.10254 q 0.0684,-0.512695 0.13671,-0.512695 0.13672,0.170898 0.1709,0.581054 l -0.37597,4.238281 0.0684,0.06836 v 0.03418 q -0.23926,0.717774 -0.47852,4.135743 v 0.9912106 q 0,2.2216797 0.20508,2.2216797 h 0.13672 q 0.61523,0 1.98242,-0.2734375 0.13672,0.03418 0.61523,0.4101563 -0.13672,3.0761718 -0.41015,3.0761718 l -0.37598,-0.3076171 -1.02539,0.068359 -3.79395,-0.068359 q -0.30761,0 -0.61523,-1.4013672 -0.20508,-0.1708985 -0.20508,-0.4101563 l 0.0684,-0.3076172 h -0.10254 q -0.27344,0 -2.0166,0.9228516 -0.10254,0.2392578 -2.39258,0.9912109 -0.51269,0.2734375 -1.36719,0.546875 -0.51269,-0.3076172 -1.64062,-0.6152343 -2.15332,-2.1191407 -2.63184,-3.725586 -0.88867,-1.2646483 -0.88867,-5.4003903 l 0.37598,-3.999024 v -0.102539 q 0,-0.06836 -2.32422,-0.444336 -0.20508,-0.307617 -0.20508,-1.708984 0,-0.922852 0.30762,-0.922852 0,-0.375976 2.66601,-0.512695 z m -0.58105,0.410156 -0.13672,0.06836 v 0.06836 h 0.23926 v -0.06836 z m 0.85449,0.273438 -0.1709,0.06836 v 0.03418 q 0,0.03418 0.5127,0.307617 0,0.444336 0.0684,0.444336 h 0.20508 q 0.82031,0 0.99121,-0.273438 v -0.06836 q 0,-0.239258 -1.02539,-0.375976 0,-0.06836 -0.41016,-0.136719 z m -2.32422,0.957031 h -0.44433 v 0.102539 l 0.0684,0.03418 h 0.10254 l 0.27343,-0.03418 z m 0,0.341797 h -0.27343 v 0.06836 q 0.0342,0.205078 0.37597,0.205078 l 0.0342,-0.06836 v -0.06836 z m 12.71485,-0.820313 h -0.0684 q 0,0.341797 0.54687,0.341797 h 0.20508 l 0.10254,-0.06836 v -0.03418 q 0,-0.170898 -0.78613,-0.239258 z m -11.82617,1.230469 q 0,0.205078 1.09375,0.581055 h 0.34179 q 0.13672,0 0.13672,-0.239258 -0.37598,-0.375977 -0.92285,-0.478516 h -0.27344 q -0.3418,0 -0.37597,0.136719 z m -0.44434,-0.102539 -0.1709,0.06836 v 0.10254 l 0.0342,0.03418 v 0.03418 q 0.30762,-0.06836 0.30762,-0.170899 v -0.06836 z m 3.00781,0.375977 v 0.649414 l 0.10254,0.06836 q 0.20508,-0.102539 0.20508,-0.410156 v -0.375977 q 0,-0.205078 -0.10254,-0.273437 h -0.0684 q -0.13672,0.03418 -0.13672,0.341797 z m -3.75976,-0.136719 -0.13672,0.136719 0.0684,0.06836 h 0.27343 l 0.10254,-0.06836 -0.13672,-0.136719 z m 13.33007,-0.273438 -0.10253,0.102539 v 0.06836 q 0,0.136719 0.23925,0.136719 h 0.0342 q 0.23926,0 0.27344,-0.136719 v -0.06836 q -0.0342,-0.102539 -0.3418,-0.102539 z m -11.07421,1.948243 v 0.273437 l 0.51269,-0.170898 v -0.717774 l -0.0684,-0.102539 q -0.1709,0 -0.44433,0.717774 z M 268.125,-15.9375 v 0.136719 h 0.0342 q 0.3418,0 0.3418,-0.786133 -0.0342,-0.341797 -0.10254,-0.341797 -0.10254,0 -0.27344,0.991211 z m 1.36719,1.05957 h -0.10254 l -0.0684,0.136719 q 0.0684,0.170898 0.13672,0.170898 h 0.0342 z m -12.30469,0.957032 -0.10254,-0.03418 -0.13672,0.136719 V -13.75 l 0.13672,0.06836 0.10254,-0.102539 z m 10.45898,1.230468 0.1709,0.170899 q 0.1709,-0.06836 0.20508,-0.683594 l -0.0342,-0.06836 h -0.0684 q -0.27344,0.205078 -0.27344,0.581054 z m -9.77539,-0.06836 v 0.239258 q 0,0.444336 0.44434,0.683593 h 0.10254 q 0,-1.264648 -0.20508,-1.264648 h -0.13672 q -0.20508,0.102539 -0.20508,0.341797 z m 9.70703,0.444336 -0.10253,0.102539 v 0.307617 l 0.10253,0.136719 q 0.20508,-0.102539 0.30762,-0.307617 v -0.136719 l -0.10254,-0.102539 z m -10.86914,0.375976 -0.10253,0.102539 v 0.136719 q 0,1.333008 1.43554,4.1699221 0.27344,0.1708985 0.37598,0.1708985 v -0.1708985 l -0.99121,-2.7685551 q -0.44434,-1.572265 -0.6836,-1.640625 z m 11.68946,0.957032 -0.13672,0.136718 v 0.03418 l 0.13672,0.102539 0.10254,-0.102539 -0.0342,-0.170898 z m -3.75977,1.6748044 0.0342,0.068359 h 0.0342 q 0.82031,-1.0937494 0.82031,-1.2646484 v -0.06836 h -0.10254 q -0.27343,0.341797 -0.78613,1.2646481 z m -6.11816,-1.1962894 v 0.03418 q 0.10254,0.205078 0.27344,0.205078 v -0.03418 q 0,-0.205078 -0.27344,-0.205078 z m 9.80957,0.06836 h -0.0684 v 0.205078 q 0,0.5468748 0.1709,1.401367 h 0.10254 q 0.13671,-0.5126953 0.13671,-0.9912109 v -0.2392581 q 0,-0.375976 -0.34179,-0.375976 z m -1.84571,0.341797 -0.13671,-0.170899 q -0.20508,0.2734376 -0.20508,0.4101564 l 0.1709,0.102539 h 0.0342 l 0.13671,-0.102539 z m 1.16211,0.3417964 h -0.0684 v 0.2392578 h 0.0684 l 0.10254,-0.102539 v -0.1025391 z m -8.13476,0.991211 h -0.0342 v 0.102539 l 0.0684,0.1025391 h 0.0342 v -0.1025391 z m 10.28808,0.03418 -0.34179,0.5126953 v 0.102539 h 0.34179 l 0.13672,-0.102539 v -0.1708985 q 0,-0.3076172 -0.13672,-0.3417968 z m -3.17871,0.5810546 v 0.03418 h 0.0684 l 0.23926,-0.2050781 v -0.1367187 q -0.30762,0 -0.30762,0.3076171 z m 1.02539,-0.068359 -0.10253,0.102539 v 0.4101563 q 0,2.3925781 0.23925,2.3925781 h 0.10254 q 0.23926,-0.03418 0.23926,-0.2050781 -0.27344,-0.4785156 -0.30762,-2.4951172 z m -8.37402,0.1708984 h -0.10254 v 0.1367188 q 0.0342,0.1367187 0.23926,0.1367187 v -0.1367187 z m 0.85449,0.2392578 h -0.10254 v 0.03418 q 0,0.3759766 1.19629,1.09375 1.36719,-0.546875 1.36719,-0.6835937 v -0.03418 q -0.88867,0 -2.46094,-0.4101563 z m 1.64063,1.2646485 v 0.068359 h 0.41015 q 1.33301,-0.3076171 1.77735,-0.9228515 v -0.1367188 h -0.1709 q -0.20508,0 -2.0166,0.9912113 z m 10.08301,-0.7177735 -1.05957,0.1367188 v 0.1367187 l 0.20507,0.03418 h 0.13672 q 0.75196,-0.03418 0.75196,-0.2392578 v -0.068359 z m 0,0.5810547 h -0.13672 v 0.2050781 h 0.13672 l 0.10253,-0.068359 v -0.068359 q 0,-0.068359 -0.10253,-0.068359 z m -2.76856,0.546875 -0.10254,0.068359 v 0.1025391 q 0.0684,0.1708984 0.41016,0.1708984 h 0.3418 l 0.10253,-0.068359 v -0.068359 q 0,-0.1708984 -0.44433,-0.2050781 z m -7.96387,0.3417969 h -0.27343 l -1.36719,-0.1367188 h -0.0684 l -0.13672,0.1367188 v 0.03418 q 0,0.3076172 1.91406,0.6835937 0.58106,0 2.29004,-0.8544922 l 0.0342,-0.03418 v -0.1025391 h -0.23926 q -1.02539,0.2734375 -2.15332,0.2734375 z"
             style="font-weight:300;font-size:35px;font-family:'Love Ya Like A Sister';letter-spacing:2.5;fill:#035578"
             id="path66" />
          <path
             d="m 278.04199,-30.532227 0.5127,-0.136718 1.43554,0.375976 2.22168,-0.102539 q 0.8545,0 0.8545,0.512696 -0.20508,1.298828 -0.20508,3.452148 v 5.366211 l -0.0342,5.161133 0.0342,1.367187 -0.1709,6.4941408 q 1.16211,0.3076172 3.52051,0.444336 l 0.0342,0.03418 v 0.4785157 q 0,0.1708984 0.37597,0.546875 -0.37597,0.8203125 -0.85449,2.4267578 l -0.30762,0.2392578 h -0.10253 q -0.20508,-0.3076172 -0.8545,-0.3076172 l -5.60547,-0.7519531 q -2.52929,0 -2.52929,-0.3076172 0.41015,-0.8203125 0.61523,-2.6660156 h 0.0342 v -0.03418 l 0.3418,0.03418 h 0.3418 q 0.17089,-0.1025391 0.99121,-0.2734375 0.34179,0.1708984 0.51269,0.1708984 h 0.41016 q 0.34179,0 0.34179,-0.6835938 0.0684,-0.8203125 0.3418,-7.4853521 -0.23926,-2.050781 -0.41015,-11.279297 -0.13672,-0.239257 -0.3418,-0.239257 l -1.53809,0.102539 q -0.41015,-0.03418 -0.41015,-0.273438 0.13671,-2.666016 0.44433,-2.666016 z m 0.3418,0.649415 -0.20508,0.06836 v 0.06836 q 0,0.307617 0.3418,0.307617 h 0.10254 q 0.37597,0 0.75195,-0.375976 v -0.06836 z m 1.74316,0 -0.0684,0.102539 0.27344,0.06836 h 0.3418 l 0.13672,-0.102539 v -0.06836 z m 1.09375,1.333007 v 0.03418 l 0.10254,0.102539 h 0.13672 q 0.30762,-0.205078 0.75195,-0.410156 0.1709,-0.273438 0.1709,-0.410156 l -0.0684,-0.06836 h -0.10254 q -0.30761,0 -0.61523,0.375977 -0.37598,0.102539 -0.37598,0.375976 z m -3.00781,-0.546875 -0.1709,0.170899 v 0.239258 l 0.13672,0.136718 h 0.68359 0.23926 v -0.136718 l -0.61523,-0.273438 -0.20508,-0.136719 z m 2.66602,2.768555 -0.0684,0.102539 v 0.136719 l 0.0684,0.102539 h 0.0684 l 0.0342,-0.102539 v -0.136719 l -0.0342,-0.102539 z m -0.0684,1.914063 -0.10254,0.102539 v 0.06836 h 0.1709 v -0.170898 z m 1.5039,2.358398 h -0.10254 v 0.03418 l 0.13672,0.170898 h 0.0342 v -0.102539 z m 0.0684,0.615234 -0.13672,-0.102539 -0.0342,0.683594 v 0.410156 h 0.0342 q 0.13672,0 0.13672,-0.478515 z m -1.77734,0.786133 v 0.136719 l 0.0684,0.06836 0.0684,-0.06836 v -0.170899 l -0.0342,-0.06836 q 0,-0.03418 0.27344,-0.205078 v -0.102539 h -0.13672 q -0.23926,0.136719 -0.23926,0.410156 z m 1.74316,0.444336 h -0.13672 v 0.273438 h 0.0342 l 0.10254,-0.06836 z m -1.26465,3.896484 v 0.10254 h 0.0684 q 0.1709,0 0.1709,-1.401368 -0.0684,0 -0.23926,1.298828 z m 0.78614,1.606446 -0.0684,0.06836 -0.0684,2.15332 v 2.8710942 l 0.0684,1.3330078 0.0342,0.03418 h 0.23926 q 0.13671,0 0.13671,-0.3076172 -0.0342,-6.1523438 -0.34179,-6.1523438 z m -1.40137,5.0927732 v 0.1367187 q 0,0.2392578 0.13672,0.2392578 l 0.13672,-0.2050781 v -0.2392578 q -0.0684,-0.4101558 -0.13672,-0.4101558 -0.13672,0 -0.13672,0.4785152 z m -2.05078,2.2216797 -0.0684,0.102539 q 0,0.2734375 0.23926,0.2734375 h 0.0342 v -0.2734375 l -0.10254,-0.102539 z m 6.7334,0 -0.20508,0.03418 v 0.068359 q 0.0342,0.2050782 0.58105,0.2050782 l 0.1709,-0.1367188 v -0.1367187 l -0.20508,-0.03418 z m -7.72461,0.102539 -0.0684,0.1025391 v 0.1025391 l 0.13672,0.068359 0.0684,-0.1367187 -0.0342,-0.1367188 z m 1.6748,0.3759766 v 0.03418 l 0.1709,0.03418 h 0.20508 l 0.13672,-0.068359 v -0.1025391 h -0.23926 -0.0342 q -0.23926,0 -0.23926,0.1025391 z m 6.18653,0.546875 -1.94825,-0.068359 v 0.03418 q 0,0.2050781 1.16211,0.2392578 h 0.88867 l 0.23926,-0.068359 v -0.1025391 z m -6.42579,0.03418 -0.10253,0.1708984 0.0684,0.1025391 h 0.5127 q 0.54688,0 0.54688,-0.1025391 v -0.068359 q -0.37598,-0.1025391 -0.95704,-0.1025391 z m 5.33204,0.8544922 0.13671,0.03418 h 0.6836 q 0.30762,0 0.3418,-0.1025391 v -0.1025391 l -0.20508,-0.03418 h -0.5127 q -0.44433,0.03418 -0.44433,0.2050782 z m -7.17774,-0.1708985 -0.10254,0.1708985 0.10254,0.03418 h 0.1709 l 0.10254,-0.03418 -0.13672,-0.1708985 z m 8.16895,0.8203125 h -0.20508 v 0.1367188 l 0.20508,0.068359 h 0.10254 l 0.20507,-0.068359 v -0.1367188 h -0.20507 z"
             style="font-weight:300;font-size:35px;font-family:'Love Ya Like A Sister';letter-spacing:2.5;fill:#035578"
             id="path68" />
          <path
             d="m 298.28125,-22.158203 q 1.43555,0 3.48633,1.230469 1.74316,1.298828 1.74316,1.777343 1.36719,2.871094 1.36719,3.452149 l 0.0342,0.273437 q -0.5127,1.196289 -0.5127,1.640625 l -0.20507,0.03418 h -2.90528 q -0.41015,0 -0.99121,0.102539 -4.92187,-0.410156 -6.9043,-0.410156 h -0.71777 q -0.41016,0.615234 -0.41016,0.888672 0.23926,0.375976 0.23926,1.196289 0,1.298828 0.41016,1.538086 l 0.0342,0.170898 v 0.03418 l -0.20508,-0.102539 v 0.102539 l 0.30762,0.3417967 q 0,0.4443359 0.61523,1.1279297 1.12793,1.9824219 2.46094,2.4609375 1.12793,0.3759765 2.56348,0.3759765 0.23925,0 0.99121,-0.4443359 0.61523,-0.1367187 2.59765,-2.2216797 v -0.1025391 q 0,-0.068359 -0.47851,-0.1367187 l -0.0684,-0.1708984 q 0.78613,-1.5039066 1.87988,-1.9824216 0.30762,0.307617 1.26465,0.957031 0.75195,1.1621093 2.0166,2.7343749 v 0.1367188 q -1.09375,1.4355469 -1.57226,1.4355469 h -0.13672 q 0,-0.7519532 -0.92285,-0.8544922 -0.1709,0 -1.50391,1.1279297 -0.78613,0.6152343 -2.7002,1.1621093 -2.22168,0.444336 -3.14453,0.444336 l -1.94824,-0.6835938 q -1.64062,0 -3.00781,-1.7773437 -0.58106,-0.6152344 -0.95703,-1.4697266 0,-0.2734375 -0.75196,-2.8369143 -0.23925,-0.991211 -0.23925,-1.914062 v -0.03418 q 0,-4.545898 2.73437,-7.963867 0.3418,-0.854492 1.57227,-1.264649 0.82031,-0.239257 1.98242,-0.375976 0.30762,-0.136719 1.98242,0 z m -3.14453,0.717773 v 0.03418 h 0.0684 q 0.54687,0 2.05078,-0.375977 0.30762,-0.03418 0.30762,-0.170898 l -0.10254,-0.102539 h -0.0342 q -0.99121,0 -2.22168,0.546875 z m -1.36719,0.581055 v 0.03418 l 0.10254,0.06836 h 0.0342 q 0.68359,-0.170898 0.68359,-0.341797 v -0.205078 l -0.13672,-0.136719 h -0.0684 q -0.61524,0.205078 -0.61524,0.581055 z m 5.26367,-0.341797 h -1.02539 v 0.06836 q 0,0.136718 1.40137,0.205078 h 0.0342 v -0.136719 q 0,-0.06836 -0.41016,-0.136719 z m -2.42675,0.512695 v 0.03418 q 0,0.136719 1.40136,0.341797 l 0.0684,-0.03418 v -0.136718 q -0.27344,-0.375977 -0.92285,-0.375977 h -0.10254 q -0.44433,0.03418 -0.44433,0.170898 z m 2.08496,0.205079 v 0.03418 q 1.94824,1.12793 2.08496,1.12793 h 0.0342 l 0.34179,-0.136719 0.20508,0.06836 0.0342,-0.06836 v -0.03418 q -0.13672,-0.10254 -0.58105,-0.205079 l -0.6836,-0.307617 q -0.27343,-0.581054 -1.09375,-0.581054 h -0.10254 q -0.23925,0.03418 -0.23925,0.102539 z m -4.06739,0.991211 q 0.3418,-0.273438 1.36719,-0.581055 v -0.06836 l -0.0342,-0.06836 h -0.3418 q -0.99121,0.273438 -0.99121,0.717774 z m -1.81152,2.255859 v 0.102539 q 0,0.375977 6.2207,0.854492 l 0.3418,0.102539 0.44434,-0.03418 q 1.36718,0.444335 1.8457,0.444335 0,0.102539 0.20508,0.170899 0.20508,-0.307617 0.20508,-0.581055 v -0.649414 q 0,-0.444336 -1.70899,-1.982422 -0.78613,-0.786133 -1.77734,-0.888672 l -1.16211,-0.205078 q -2.83692,0.581055 -3.72559,1.401367 -0.37597,0.717774 -0.88867,1.26465 z m 0.37598,-2.050781 v 0.06836 h 0.0684 q 0.44433,-0.102539 0.44433,-0.239258 v -0.03418 h -0.1709 q -0.1709,0 -0.34179,0.205078 z m 8.16894,0.478515 q 0.0684,0.273438 0.30762,0.273438 h 0.0684 l 0.0684,-0.102539 v -0.205078 l -0.13672,-0.170899 q -0.30762,0 -0.30762,0.205078 z m -8.81836,0.170899 -0.0684,0.102539 v 0.03418 h 0.0684 l 0.13672,-0.102539 v -0.03418 z m 9.67285,0.273437 h -0.13671 q 0.37597,1.12793 0.54687,1.230469 h 0.13672 l 0.10254,-0.06836 q -0.27344,-1.09375 -0.58106,-1.09375 z m -9.36523,0.615235 q 0.20508,-0.03418 0.20508,-0.273438 v -0.03418 q -0.20508,0.06836 -0.20508,0.307618 z m 10.52734,0.922851 -0.10254,0.06836 v 0.239257 l 0.10254,0.136719 q 0.13672,-0.03418 0.13672,-0.239258 v -0.136718 l -0.0342,-0.06836 z m -10.90332,0.478516 v 0.136719 l 0.0684,0.06836 h 0.0684 q 0.23926,-0.102539 0.41016,-0.375977 v -0.102539 h -0.1709 q -0.20508,0 -0.37598,0.273438 z m -1.40136,-0.205078 q -0.27344,0.273437 -0.47852,1.367187 h 0.0684 q 0.20508,0 0.61523,-1.196289 -0.0684,-0.170898 -0.20507,-0.170898 z m 3.48632,0.410156 v 0.102539 q 0.64942,0.444336 2.3584,0.444336 h 0.30762 l 0.44434,-0.03418 v -0.136719 q -1.40137,-0.307617 -3.11036,-0.375976 z m 6.25489,0.888672 h -0.10254 v 0.102539 h 0.10254 z m -6.59668,0.273437 v 0.06836 q 0.68359,0.170898 3.62304,0.341796 v 0.03418 0.03418 l -0.71777,0.102539 q 0,0.102539 0.88867,0.102539 1.43555,0 1.43555,-0.136719 0,-0.341797 -5.22949,-0.546875 z m -3.45215,0.239258 h -0.1709 v 0.205078 q 0,0.205078 0.10254,0.205078 0.1709,0 0.20508,-0.341797 z m 2.76855,0.06836 -0.1709,0.03418 v 0.205078 h 0.1709 v -0.136719 -0.06836 z m -1.09375,0.273438 v 0.03418 h 0.0342 l 0.58106,-0.06836 v -0.06836 l -0.10254,-0.136719 h -0.10254 q -0.30762,0 -0.41016,0.239258 z m 8.30567,0.06836 q 0,0.136719 0.61523,0.136719 l 0.30762,-0.03418 v -0.06836 q 0,-0.136719 -0.64942,-0.136719 -0.27343,0.06836 -0.27343,0.10254 z m -10.15137,0.888672 v 0.102539 0.03418 q -0.0342,0.102539 -0.0342,0.478516 v 0.136718 q 0,0.615235 0.3418,1.09375 h 0.0342 q 0,-1.640625 -0.3418,-1.845703 z m 0.61523,2.973633 h -0.10253 v 0.06836 l 0.10253,0.06836 h 0.0684 v -0.06836 z m 0.23926,0.5810547 -0.0342,0.03418 v 0.068359 q 0.13672,0.546875 0.41016,0.546875 v -0.03418 -0.068359 q 0,-0.2734375 -0.37598,-0.546875 z m 11.14258,0.3076172 0.0684,0.102539 h 0.1709 q 0.20508,0 0.23926,-0.1367187 l -0.13672,-0.1367188 h -0.0342 q -0.23926,0 -0.30762,0.1708985 z m -0.78613,1.9824219 0.0684,0.03418 h 0.0342 q 0.37597,0 0.47851,-0.4443359 v -0.068359 q -0.37597,0 -0.58105,0.4785157 z m 2.39258,-0.068359 0.0342,0.03418 h 0.10253 q 0.20508,-0.1367188 0.20508,-0.3759766 h -0.10254 q -0.23925,0.1367188 -0.23925,0.3417969 z m 1.19628,-0.3417969 h -0.0342 v 0.068359 q 0.10253,0.4101562 0.30761,0.4101562 h 0.0342 l 0.0684,-0.068359 v -0.03418 q -0.0684,-0.3759766 -0.37598,-0.3759766 z m -1.98242,0.7177734 0.10254,0.068359 q 0.5127,-0.1708984 0.5127,-0.4443359 v -0.068359 h -0.0342 q -0.47852,0 -0.58106,0.4443359 z m -2.66601,0.7519532 h 0.0684 q 0.27343,-0.1025391 0.30761,-0.3417969 l -0.0342,-0.03418 q -0.34179,0.2050781 -0.34179,0.3759766 z m 2.0166,0.1708984 h 0.13672 q 0.34179,-0.3076172 0.34179,-0.4443359 h -0.0342 q -0.44433,0.1367187 -0.44433,0.4443359 z m -9.70703,0.3076172 h -0.10254 v 0.1367187 q 0.0684,0.1708985 0.58105,0.3759766 l 0.13672,0.1025391 q -0.37597,-0.5810547 -0.61523,-0.6152344 z m 2.39258,0.1367187 h -0.0342 v 0.03418 q 0,0.1367188 0.71777,0.3076172 l 0.0342,-0.03418 v -0.068359 q -0.44434,-0.2392579 -0.71777,-0.2392582 z m 2.0166,0.3759766 h -0.10254 v 0.1025391 h 0.10254 z m 3.55468,0.5126953 q 0.3418,0 0.54688,-0.5126953 h -0.10254 q -0.44434,0.2392578 -0.44434,0.5126953 z m -2.39257,0.3417969 -0.71778,-0.068359 h -0.13672 q -0.30761,0 -0.34179,0.1367188 v 0.068359 l 0.13672,0.1025391 h 0.61523 q 1.05957,0 2.49512,-0.3759766 -0.0684,-0.2050781 -0.41016,-0.2050781 h -0.1709 q -0.82031,0 -1.46972,0.3417968 z"
             style="font-weight:300;font-size:35px;font-family:'Love Ya Like A Sister';letter-spacing:2.5;fill:#035578"
             id="path70" />
        </g>
      </g>
      <g
         id="zweig"
         transform="translate(-10,10), scale(1.0,0.3)">
        <g
           aria-label="WeTeK Berlin gGmbH"
           id="zwei"
           style="dominant-baseline:text-before-edge;text-rendering:geometricPrecision">
          <path
             d="m 96.9,2.425 q 0.5,0 0.925,0.375 0.425,0.35 0.425,0.975 0,0.175 -0.075,0.425 l -5.125,15 q -0.125,0.375 -0.45,0.575 -0.325,0.2 -0.675,0.225 -0.35,0 -0.7,-0.2 -0.35,-0.2 -0.525,-0.6 l -3.95,-9.25 0.225,0.1 -3.9,9.15 q -0.2,0.4 -0.55,0.6 Q 82.2,20 81.825,20 81.5,19.975 81.175,19.775 80.85,19.575 80.725,19.2 L 75.6,4.2 q -0.075,-0.25 -0.075,-0.425 0,-0.625 0.45,-0.975 0.45,-0.375 0.925,-0.375 0.4,0 0.725,0.225 0.35,0.2 0.475,0.6 l 4.325,12.9 h -0.45 l 3.8,-9.3 q 0.175,-0.375 0.475,-0.6 0.325,-0.225 0.725,-0.2 0.4,-0.025 0.7,0.2 0.325,0.225 0.475,0.6 l 3.6,9.025 -0.375,0.2 4.3,-12.825 Q 95.8,2.85 96.15,2.65 96.5,2.425 96.9,2.425 Z"
             style="font-weight:600;font-size:25px;font-family:Quicksand;letter-spacing:1;dominant-baseline:text-before-edge;fill:#6aa84f"
             id="path73" />
          <path
             d="m 107.13867,20.25 q -2.05,0 -3.6,-0.85 -1.525,-0.875 -2.375,-2.375 -0.825,-1.525 -0.825,-3.475 0,-2.2 0.875,-3.75 0.9,-1.575 2.325,-2.4 1.45,-0.85 3.05,-0.85 1.2,0 2.3,0.5 1.125,0.475 1.975,1.35 0.85,0.85 1.35,2.025 0.5,1.15 0.525,2.525 -0.025,0.5 -0.4,0.825 -0.375,0.325 -0.875,0.325 h -9.7 l -0.6,-2.125 h 9.4 l -0.475,0.45 V 11.8 q -0.075,-0.875 -0.6,-1.525 -0.525,-0.675 -1.3,-1.025 -0.75,-0.375 -1.6,-0.375 -0.75,0 -1.45,0.25 -0.7,0.225 -1.225,0.75 -0.525,0.525 -0.85,1.4 -0.325,0.85 -0.325,2.125 0,1.375 0.575,2.4 0.575,1.025 1.55,1.6 0.975,0.55 2.175,0.55 0.9,0 1.5,-0.175 0.6,-0.2 1,-0.475 0.4,-0.275 0.7,-0.525 0.4,-0.225 0.75,-0.225 0.45,0 0.75,0.325 0.3,0.3 0.3,0.725 0,0.55 -0.55,1 -0.675,0.65 -1.875,1.15 -1.175,0.5 -2.475,0.5 z"
             style="font-weight:600;font-size:25px;font-family:Quicksand;letter-spacing:1;dominant-baseline:text-before-edge;fill:#6aa84f"
             id="path75" />
          <path
             d="m 121.29727,20 q -0.6,0 -0.975,-0.35 -0.35,-0.375 -0.35,-0.925 V 3.75 h 2.675 v 14.975 q 0,0.55 -0.4,0.925 -0.375,0.35 -0.95,0.35 z m -5.675,-15.1 q -0.525,0 -0.9,-0.325 -0.375,-0.35 -0.375,-0.9 0,-0.525 0.375,-0.85 0.375,-0.325 0.9,-0.325 h 11.375 q 0.525,0 0.875,0.35 0.375,0.325 0.375,0.85 0,0.55 -0.375,0.875 -0.35,0.325 -0.875,0.325 z"
             style="font-weight:600;font-size:25px;font-family:Quicksand;letter-spacing:1;dominant-baseline:text-before-edge;fill:#6aa84f"
             id="path77" />
          <path
             d="m 134.82227,20.25 q -2.05,0 -3.6,-0.85 -1.525,-0.875 -2.375,-2.375 -0.825,-1.525 -0.825,-3.475 0,-2.2 0.875,-3.75 0.9,-1.575 2.325,-2.4 1.45,-0.85 3.05,-0.85 1.2,0 2.3,0.5 1.125,0.475 1.975,1.35 0.85,0.85 1.35,2.025 0.5,1.15 0.525,2.525 -0.025,0.5 -0.4,0.825 -0.375,0.325 -0.875,0.325 h -9.7 l -0.6,-2.125 h 9.4 l -0.475,0.45 V 11.8 q -0.075,-0.875 -0.6,-1.525 -0.525,-0.675 -1.3,-1.025 -0.75,-0.375 -1.6,-0.375 -0.75,0 -1.45,0.25 -0.7,0.225 -1.225,0.75 -0.525,0.525 -0.85,1.4 -0.325,0.85 -0.325,2.125 0,1.375 0.575,2.4 0.575,1.025 1.55,1.6 0.975,0.55 2.175,0.55 0.9,0 1.5,-0.175 0.6,-0.2 1,-0.475 0.4,-0.275 0.7,-0.525 0.4,-0.225 0.75,-0.225 0.45,0 0.75,0.325 0.3,0.3 0.3,0.725 0,0.55 -0.55,1 -0.675,0.65 -1.875,1.15 -1.175,0.5 -2.475,0.5 z"
             style="font-weight:600;font-size:25px;font-family:Quicksand;letter-spacing:1;dominant-baseline:text-before-edge;fill:#6aa84f"
             id="path79" />
          <path
             d="m 156.60391,20.025 q -0.575,0 -0.925,-0.475 l -6.225,-8.025 1.925,-1.95 6.35,8.275 q 0.3,0.4 0.3,0.875 0,0.6 -0.45,0.95 -0.45,0.35 -0.975,0.35 z m 0.125,-17.6 q 0.5,0 0.825,0.4 0.325,0.4 0.325,0.825 0,0.45 -0.375,0.825 l -10.775,10.225 -0.15,-2.95 9.15,-8.85 q 0.45,-0.475 1,-0.475 z M 145.70391,20 q -0.575,0 -0.95,-0.35 -0.35,-0.375 -0.35,-0.925 V 3.775 q 0,-0.55 0.375,-0.9 0.375,-0.375 0.975,-0.375 0.575,0 0.925,0.375 0.35,0.35 0.35,0.9 v 14.95 q -0.025,0.55 -0.375,0.925 -0.35,0.35 -0.95,0.35 z"
             style="font-weight:600;font-size:25px;font-family:Quicksand;letter-spacing:1;dominant-baseline:text-before-edge;fill:#6aa84f"
             id="path81" />
          <path
             d="m 177.56523,2.5 q 2.3,0 3.475,1.125 1.2,1.125 1.2,3.275 0,1.125 -0.55,2.05 -0.525,0.9 -1.575,1.425 -1.025,0.525 -2.575,0.55 l 0.05,-0.925 q 0.825,0 1.775,0.225 0.975,0.225 1.825,0.775 0.85,0.55 1.4,1.5 0.55,0.925 0.55,2.325 0,1.525 -0.5,2.55 -0.5,1 -1.325,1.575 -0.825,0.575 -1.825,0.825 -0.975,0.225 -1.925,0.225 h -6.4 q -0.525,0 -0.9,-0.35 -0.375,-0.375 -0.375,-0.925 V 3.775 q 0,-0.55 0.375,-0.9 0.375,-0.375 0.9,-0.375 z m -0.35,2.45 h -4.925 l 0.3,-0.4 v 5.375 l -0.275,-0.275 h 4.95 q 0.9,-0.025 1.575,-0.6 0.7,-0.6 0.7,-1.75 0,-1.175 -0.625,-1.75 -0.625,-0.6 -1.7,-0.6 z m 0.175,7.15 h -4.975 l 0.175,-0.175 v 5.9 l -0.2,-0.225 h 5.15 q 1.3,0 2.1,-0.675 0.8,-0.7 0.8,-2.1 0,-1.175 -0.475,-1.75 -0.475,-0.575 -1.175,-0.775 -0.7,-0.2 -1.4,-0.2 z"
             style="font-weight:600;font-size:25px;font-family:Quicksand;letter-spacing:1;dominant-baseline:text-before-edge;fill:#6aa84f"
             id="path83" />
          <path
             d="m 192.92383,20.25 q -2.05,0 -3.6,-0.85 -1.525,-0.875 -2.375,-2.375 -0.825,-1.525 -0.825,-3.475 0,-2.2 0.875,-3.75 0.9,-1.575 2.325,-2.4 1.45,-0.85 3.05,-0.85 1.2,0 2.3,0.5 1.125,0.475 1.975,1.35 0.85,0.85 1.35,2.025 0.5,1.15 0.525,2.525 -0.025,0.5 -0.4,0.825 -0.375,0.325 -0.875,0.325 h -9.7 l -0.6,-2.125 h 9.4 l -0.475,0.45 V 11.8 q -0.075,-0.875 -0.6,-1.525 -0.525,-0.675 -1.3,-1.025 -0.75,-0.375 -1.6,-0.375 -0.75,0 -1.45,0.25 -0.7,0.225 -1.225,0.75 -0.525,0.525 -0.85,1.4 -0.325,0.85 -0.325,2.125 0,1.375 0.575,2.4 0.575,1.025 1.55,1.6 0.975,0.55 2.175,0.55 0.9,0 1.5,-0.175 0.6,-0.2 1,-0.475 0.4,-0.275 0.7,-0.525 0.4,-0.225 0.75,-0.225 0.45,0 0.75,0.325 0.3,0.3 0.3,0.725 0,0.55 -0.55,1 -0.675,0.65 -1.875,1.15 -1.175,0.5 -2.475,0.5 z"
             style="font-weight:600;font-size:25px;font-family:Quicksand;letter-spacing:1;dominant-baseline:text-before-edge;fill:#6aa84f"
             id="path85" />
          <path
             d="m 203.48047,20 q -0.55,0 -0.9,-0.35 -0.35,-0.375 -0.35,-0.925 v -10.6 q 0,-0.55 0.35,-0.9 0.35,-0.375 0.9,-0.375 0.525,0 0.875,0.375 0.375,0.35 0.375,0.9 v 2.8 l -0.25,-1.075 q 0.2,-0.7 0.6,-1.3 0.425,-0.6 1,-1.05 0.575,-0.45 1.275,-0.7 0.725,-0.25 1.5,-0.25 0.65,0 1.125,0.35 0.475,0.35 0.475,0.875 0,0.675 -0.35,1 -0.35,0.3 -0.775,0.3 -0.375,0 -0.725,-0.15 -0.35,-0.175 -0.825,-0.175 -0.525,0 -1.075,0.275 -0.55,0.275 -1,0.825 -0.45,0.525 -0.725,1.25 -0.25,0.725 -0.25,1.625 v 6 q 0,0.55 -0.375,0.925 -0.35,0.35 -0.875,0.35 z"
             style="font-weight:600;font-size:25px;font-family:Quicksand;letter-spacing:1;dominant-baseline:text-before-edge;fill:#6aa84f"
             id="path87" />
          <path
             d="m 216.37969,18.725 q 0,0.55 -0.375,0.925 -0.35,0.35 -0.875,0.35 -0.525,0 -0.9,-0.35 -0.35,-0.375 -0.35,-0.925 V 2.775 q 0,-0.55 0.375,-0.9 0.375,-0.375 0.9,-0.375 0.55,0 0.875,0.375 0.35,0.35 0.35,0.9 z"
             style="font-weight:600;font-size:25px;font-family:Quicksand;letter-spacing:1;dominant-baseline:text-before-edge;fill:#6aa84f"
             id="path89" />
          <path
             d="m 223.475,18.725 q 0,0.55 -0.35,0.925 -0.35,0.35 -0.9,0.35 -0.525,0 -0.9,-0.35 -0.35,-0.375 -0.35,-0.925 v -10.7 q 0,-0.55 0.35,-0.9 0.375,-0.375 0.9,-0.375 0.55,0 0.9,0.375 0.35,0.35 0.35,0.9 z M 222.2,5.1 q -0.725,0 -1.05,-0.25 -0.325,-0.275 -0.325,-0.9 v -0.4 q 0,-0.625 0.35,-0.875 0.35,-0.25 1.05,-0.25 0.75,0 1.075,0.275 0.325,0.25 0.325,0.85 v 0.4 q 0,0.65 -0.35,0.9 Q 222.95,5.1 222.2,5.1 Z"
             style="font-weight:600;font-size:25px;font-family:Quicksand;letter-spacing:1;dominant-baseline:text-before-edge;fill:#6aa84f"
             id="path91" />
          <path
             d="m 234.61289,6.55 q 1.775,0 2.75,0.75 0.975,0.725 1.35,1.975 0.4,1.225 0.4,2.75 v 6.7 q 0,0.55 -0.375,0.925 -0.35,0.35 -0.875,0.35 -0.55,0 -0.9,-0.35 -0.35,-0.375 -0.35,-0.925 V 12.05 q 0,-0.9 -0.25,-1.6 -0.25,-0.725 -0.875,-1.15 -0.6,-0.45 -1.7,-0.45 -1.025,0 -1.8,0.45 -0.775,0.425 -1.225,1.15 -0.425,0.7 -0.425,1.6 v 6.675 q 0,0.55 -0.375,0.925 -0.35,0.35 -0.875,0.35 -0.55,0 -0.9,-0.35 -0.35,-0.375 -0.35,-0.925 v -10.6 q 0,-0.55 0.35,-0.9 0.35,-0.375 0.9,-0.375 0.525,0 0.875,0.375 0.375,0.35 0.375,0.9 v 1.4 l -0.45,0.25 q 0.175,-0.55 0.6,-1.1 0.45,-0.575 1.075,-1.05 0.625,-0.5 1.4,-0.775 0.775,-0.3 1.65,-0.3 z"
             style="font-weight:600;font-size:25px;font-family:Quicksand;letter-spacing:1;dominant-baseline:text-before-edge;fill:#6aa84f"
             id="path93" />
          <path
             d="m 256.86758,6.55 q 1.075,0 1.975,0.35 0.9,0.35 1.55,0.9 0.675,0.525 1.05,1.1 0.375,0.575 0.375,1 l -0.575,0.025 v -2 q 0,-0.525 0.35,-0.9 0.35,-0.375 0.9,-0.375 0.55,0 0.9,0.375 0.35,0.35 0.35,0.9 V 18.95 q 0,2.125 -0.9,3.45 -0.9,1.35 -2.4,1.975 -1.475,0.625 -3.25,0.625 -0.625,0 -1.475,-0.175 -0.85,-0.15 -1.575,-0.375 -0.7,-0.225 -0.975,-0.45 -0.575,-0.3 -0.775,-0.7 -0.175,-0.4 0.025,-0.8 0.225,-0.55 0.65,-0.675 0.425,-0.125 0.975,0.075 0.25,0.075 0.775,0.275 0.525,0.2 1.175,0.35 0.65,0.175 1.225,0.175 2,0 3,-0.925 1.025,-0.925 1.025,-2.525 V 17 l 0.3,0.175 q -0.075,0.525 -0.475,1.075 -0.4,0.525 -1.025,0.975 -0.625,0.45 -1.425,0.75 -0.8,0.275 -1.675,0.275 -1.75,0 -3.175,-0.875 -1.4,-0.9 -2.225,-2.425 -0.825,-1.55 -0.825,-3.55 0,-2 0.825,-3.525 0.825,-1.55 2.2,-2.425 1.4,-0.9 3.125,-0.9 z m 0.375,2.3 q -1.2,0 -2.15,0.6 -0.925,0.6 -1.45,1.625 -0.5,1.025 -0.5,2.325 0,1.3 0.5,2.325 0.525,1.025 1.45,1.625 0.95,0.6 2.15,0.6 1.225,0 2.15,-0.575 0.925,-0.6 1.45,-1.625 0.525,-1.05 0.525,-2.35 0,-1.3 -0.525,-2.325 -0.525,-1.05 -1.45,-1.625 -0.925,-0.6 -2.15,-0.6 z"
             style="font-weight:600;font-size:25px;font-family:Quicksand;letter-spacing:1;dominant-baseline:text-before-edge;fill:#6aa84f"
             id="path95" />
          <path
             d="m 276.39609,20.25 q -1.9,0 -3.55,-0.675 -1.65,-0.7 -2.9,-1.925 -1.225,-1.25 -1.925,-2.875 -0.7,-1.625 -0.7,-3.525 0,-1.9 0.7,-3.525 0.7,-1.625 1.925,-2.85 1.25,-1.25 2.9,-1.925 1.65,-0.7 3.55,-0.7 1.225,0 2.375,0.275 1.15,0.275 2.075,0.8 0.325,0.175 0.475,0.475 0.15,0.275 0.15,0.55 0,0.525 -0.35,0.925 -0.325,0.375 -0.825,0.375 -0.175,0 -0.375,-0.05 -0.175,-0.05 -0.325,-0.125 -0.7,-0.35 -1.5,-0.525 -0.8,-0.2 -1.7,-0.2 -1.8,0 -3.25,0.875 -1.45,0.85 -2.3,2.325 -0.825,1.475 -0.825,3.3 0,1.8 0.825,3.3 0.85,1.475 2.3,2.35 1.45,0.85 3.25,0.85 0.875,0 1.85,-0.2 0.975,-0.225 1.65,-0.575 l -0.2,0.675 V 12.9 l 0.4,0.35 h -3.275 q -0.55,0 -0.925,-0.35 -0.35,-0.35 -0.35,-0.9 0,-0.55 0.35,-0.9 0.375,-0.35 0.925,-0.35 h 4.325 q 0.525,0 0.875,0.375 0.375,0.35 0.375,0.9 v 5.55 q 0,0.4 -0.2,0.675 -0.2,0.275 -0.45,0.45 -1.125,0.7 -2.5,1.125 -1.35,0.425 -2.85,0.425 z"
             style="font-weight:600;font-size:25px;font-family:Quicksand;letter-spacing:1;dominant-baseline:text-before-edge;fill:#6aa84f"
             id="path97" />
          <path
             d="m 292.97891,6.625 q 1.85,0 2.85,0.925 1,0.9 1.325,2.45 l -0.4,-0.125 0.175,-0.4 q 0.325,-0.65 0.975,-1.3 0.675,-0.675 1.6,-1.1 0.925,-0.45 1.975,-0.45 1.725,0 2.675,0.75 0.95,0.725 1.325,1.975 0.375,1.225 0.375,2.75 v 6.625 q 0,0.55 -0.35,0.925 -0.35,0.35 -0.9,0.35 -0.525,0 -0.9,-0.35 -0.35,-0.375 -0.35,-0.925 v -6.6 q 0,-0.875 -0.25,-1.6 -0.225,-0.725 -0.825,-1.15 -0.575,-0.45 -1.6,-0.45 -0.975,0 -1.75,0.45 -0.75,0.425 -1.175,1.15 -0.425,0.725 -0.425,1.6 v 6.6 q 0,0.55 -0.35,0.925 -0.35,0.35 -0.9,0.35 -0.55,0 -0.9,-0.35 -0.35,-0.375 -0.35,-0.925 V 12.1 q 0,-0.875 -0.25,-1.6 -0.225,-0.725 -0.8,-1.15 -0.575,-0.425 -1.6,-0.425 -0.975,0 -1.725,0.425 -0.75,0.425 -1.175,1.15 -0.4,0.725 -0.4,1.6 v 6.625 q 0,0.55 -0.375,0.925 -0.35,0.35 -0.875,0.35 -0.55,0 -0.9,-0.35 -0.35,-0.375 -0.35,-0.925 v -10.6 q 0,-0.55 0.35,-0.9 0.35,-0.375 0.9,-0.375 0.525,0 0.875,0.375 0.375,0.35 0.375,0.9 V 9.6 l -0.475,0.275 q 0.175,-0.55 0.575,-1.125 0.4,-0.575 1,-1.05 0.625,-0.475 1.375,-0.775 0.75,-0.3 1.625,-0.3 z"
             style="font-weight:600;font-size:25px;font-family:Quicksand;letter-spacing:1;dominant-baseline:text-before-edge;fill:#6aa84f"
             id="path99" />
          <path
             d="m 317.00195,6.55 q 1.75,0 3.1,0.875 1.375,0.875 2.175,2.425 0.8,1.525 0.8,3.525 0,2 -0.8,3.55 -0.8,1.55 -2.15,2.45 -1.35,0.875 -3.05,0.875 -0.95,0 -1.8,-0.3 -0.85,-0.325 -1.5,-0.8 -0.65,-0.5 -1.075,-1.05 -0.4,-0.55 -0.5,-1.025 l 0.675,-0.325 v 2.175 q 0,0.525 -0.375,0.9 -0.35,0.35 -0.875,0.35 -0.55,0 -0.9,-0.35 -0.35,-0.35 -0.35,-0.9 V 2.775 q 0,-0.55 0.35,-0.9 0.35,-0.375 0.9,-0.375 0.525,0 0.875,0.375 0.375,0.35 0.375,0.9 V 9.8 l -0.4,-0.225 q 0.075,-0.475 0.475,-0.975 0.4,-0.525 1,-1 0.625,-0.475 1.4,-0.75 0.8,-0.3 1.65,-0.3 z m -0.275,2.3 q -1.2,0 -2.1,0.6 -0.875,0.6 -1.375,1.625 -0.5,1 -0.5,2.3 0,1.3 0.5,2.35 0.5,1.025 1.375,1.625 0.9,0.6 2.1,0.6 1.175,0 2.05,-0.6 0.875,-0.6 1.375,-1.65 0.525,-1.05 0.525,-2.325 0,-1.3 -0.525,-2.3 -0.5,-1.025 -1.375,-1.625 -0.875,-0.6 -2.05,-0.6 z"
             style="font-weight:600;font-size:25px;font-family:Quicksand;letter-spacing:1;dominant-baseline:text-before-edge;fill:#6aa84f"
             id="path101" />
          <path
             d="m 328.38281,2.5 q 0.5,0 0.875,0.375 0.4,0.35 0.4,0.9 v 14.95 q -0.025,0.55 -0.425,0.925 -0.375,0.35 -0.9,0.35 -0.575,0 -0.95,-0.35 -0.35,-0.375 -0.35,-0.925 V 3.775 q 0,-0.55 0.375,-0.9 0.375,-0.375 0.975,-0.375 z m 11.275,0 q 0.6,0 0.95,0.375 0.35,0.35 0.35,0.9 v 14.95 q 0,0.55 -0.375,0.925 -0.35,0.35 -0.95,0.35 -0.525,0 -0.9,-0.35 -0.375,-0.375 -0.375,-0.925 V 3.775 q 0,-0.55 0.375,-0.9 0.4,-0.375 0.925,-0.375 z m -11.375,7.45 h 11.4 l -0.025,2.4 h -11.4 z"
             style="font-weight:600;font-size:25px;font-family:Quicksand;letter-spacing:1;dominant-baseline:text-before-edge;fill:#6aa84f"
             id="path103" />
        </g>
      </g>
    </g>
  </g>
</svg>
